<svg width="28" height="28" viewBox="0 0 28 28" fill="none" xmlns="http://www.w3.org/2000/svg">
<path fill-rule="evenodd" clip-rule="evenodd" d="M5.51351 14C5.51351 9.30687 9.31652 5.5 14.0067 5.5C18.6969 5.5 22.4999 9.30687 22.4999 14C22.4999 18.6931 18.6969 22.5 14.0067 22.5C12.6694 22.5 11.3637 22.1971 10.1565 21.5914L6.55086 22.4853C6.5115 22.4951 6.4711 22.5 6.43054 22.5H6.36185C6.10718 22.5 5.93464 22.3977 5.8055 22.3116C5.75059 22.2749 5.70348 22.2278 5.66688 22.1728C5.54808 21.9945 5.44179 21.699 5.53517 21.4021L6.5173 17.9945C5.84628 16.776 5.51351 15.4013 5.51351 14ZM14.0067 6.5C9.86961 6.5 6.51351 9.85835 6.51351 14C6.51351 15.3082 6.84019 16.5763 7.48716 17.6771C7.55669 17.7954 7.57454 17.9371 7.53654 18.0689L6.56136 21.4524L10.0983 20.5756C10.2178 20.5459 10.344 20.5614 10.4527 20.6191C11.5612 21.2064 12.7665 21.5 14.0067 21.5C18.1438 21.5 21.4999 18.1417 21.4999 14C21.4999 9.85835 18.1438 6.5 14.0067 6.5ZM11.4788 10.7087H11.123C11.0962 10.7087 11.069 10.7119 11.0412 10.722C11.015 10.7316 10.973 10.7524 10.9199 10.8056C10.7351 10.9904 10.3363 11.3896 10.3363 12.1565C10.3363 12.5289 10.4794 12.933 10.6595 13.2856C10.8355 13.6301 11.024 13.8815 11.0705 13.9436C11.0788 13.9547 11.0921 13.9734 11.1101 13.9986C11.3675 14.3604 12.598 16.0901 14.3757 16.844L14.3776 16.8448C14.7245 16.9936 15.0044 17.0824 15.2661 17.1654C15.3485 17.1916 15.429 17.2171 15.5092 17.2438C15.8855 17.3493 16.2441 17.3286 16.5747 17.2961C16.6926 17.2705 16.9257 17.1811 17.156 17.037C17.4129 16.8763 17.5396 16.7264 17.5671 16.6494L17.5712 16.638C17.6414 16.4552 17.6702 16.2944 17.6729 16.1915C17.673 16.187 17.673 16.1828 17.6731 16.1788C17.6606 16.173 17.6453 16.166 17.6258 16.1571L17.6213 16.155C17.5799 16.1361 17.5259 16.1115 17.4667 16.0819C17.2737 15.9853 16.4555 15.5903 16.1836 15.4681C16.0943 15.5852 15.9801 15.7192 15.8844 15.8305C15.8458 15.8754 15.8098 15.917 15.777 15.955C15.6842 16.0623 15.617 16.14 15.5884 16.1781C15.56 16.216 15.5263 16.2497 15.4885 16.2781C15.3999 16.3446 15.2528 16.4447 15.0505 16.47C14.844 16.4959 14.6621 16.4349 14.5127 16.3602C14.5013 16.3545 14.4901 16.3483 14.4791 16.3417C14.4794 16.3419 14.4796 16.342 14.4791 16.3417C14.4767 16.3404 14.4648 16.3341 14.4364 16.3207C14.413 16.3097 14.3871 16.2979 14.3549 16.2833C14.3419 16.2774 14.328 16.271 14.3128 16.2641C14.2107 16.2175 14.0764 16.1551 13.92 16.0721C13.6069 15.9059 13.2106 15.6601 12.7788 15.2849C12.0934 14.7119 11.638 13.9947 11.509 13.7365C11.4061 13.5305 11.377 13.3022 11.4659 13.0797C11.532 12.9144 11.6525 12.7957 11.698 12.751C11.7013 12.7477 11.7043 12.7448 11.7068 12.7422C11.7301 12.719 11.7556 12.698 11.783 12.6797C11.7819 12.6807 11.782 12.6804 11.783 12.6797C11.7869 12.6763 11.8045 12.6607 11.8372 12.6226C11.8767 12.5764 11.9188 12.5205 11.9732 12.448C12.0407 12.3579 12.0638 12.3172 12.1115 12.2225C12.1103 12.2188 12.1089 12.2147 12.1074 12.2102C12.1079 12.2117 12.1077 12.2111 12.1065 12.2079C12.1042 12.2021 12.0988 12.1878 12.0883 12.1618C12.0742 12.1268 12.0551 12.0805 12.0321 12.0248C11.986 11.9138 11.9257 11.7705 11.8605 11.6162C11.8225 11.5261 11.7828 11.4322 11.7434 11.3391C11.6489 11.1156 11.5565 10.8971 11.4947 10.7487C11.4917 10.7416 11.4889 10.7345 11.4863 10.7273C11.4839 10.7207 11.481 10.7145 11.4788 10.7087ZM12.4219 10.3741C12.331 10.1289 12.1906 9.91031 11.9541 9.79199C11.7449 9.68731 11.5116 9.70806 11.5046 9.70868L11.1222 9.7087C10.8838 9.7087 10.5359 9.77501 10.2124 10.0988C9.97986 10.3316 9.33634 10.9765 9.33634 12.1565C9.33634 12.758 9.55818 13.3279 9.76902 13.7405C9.98394 14.1612 10.2125 14.4662 10.2703 14.5433C10.2644 14.5355 10.4149 14.7511 10.5784 14.9633C10.7603 15.1994 11.0148 15.5099 11.3334 15.8447C11.9657 16.5091 12.8718 17.2923 13.9843 17.7643C14.3808 17.9343 14.7232 18.0427 14.9905 18.1274C15.0681 18.152 15.1394 18.1745 15.2038 18.196C15.2107 18.1983 15.2176 18.2005 15.2246 18.2025C15.809 18.3696 16.3426 18.3244 16.6977 18.2888C16.711 18.2875 16.7243 18.2856 16.7374 18.2832C17.0082 18.234 17.3718 18.0815 17.6863 17.8848C17.984 17.6986 18.3589 17.3984 18.5067 16.9917C18.609 16.7239 18.6665 16.452 18.6725 16.2172C18.6755 16.1009 18.6666 15.9708 18.6293 15.8468C18.6066 15.7713 18.5601 15.6556 18.4648 15.5555C18.3716 15.4213 18.2472 15.3501 18.1823 15.3154C18.135 15.2902 18.084 15.267 18.0451 15.2492L18.0408 15.2473C17.9971 15.2273 17.9571 15.2091 17.9143 15.1876C17.7118 15.0863 16.6835 14.5887 16.4862 14.5097L16.4806 14.5075C16.3986 14.4746 16.2136 14.4004 16.003 14.4252C15.7388 14.4563 15.5545 14.6179 15.4325 14.8011C15.3836 14.8744 15.2673 15.0144 15.1264 15.1782C15.1007 15.2082 15.0736 15.2394 15.0463 15.271C14.9978 15.327 14.9486 15.3838 14.9048 15.4354C14.8472 15.406 14.7831 15.3767 14.7123 15.3443C14.4117 15.2067 13.9906 15.0139 13.4314 14.5272L13.4234 14.5204C12.9561 14.1306 12.617 13.6499 12.4696 13.4067C12.5193 13.3606 12.5619 13.3137 12.5967 13.2731C12.6595 13.1997 12.72 13.119 12.7691 13.0534L12.7734 13.0477C12.9045 12.8728 12.9549 12.772 13.0291 12.6235C13.1917 12.298 13.0993 12.0228 13.0598 11.9048C13.0585 11.9011 13.0573 11.8976 13.0562 11.8942C13.0307 11.8176 12.905 11.5191 12.7818 11.2273C12.7429 11.135 12.7026 11.0398 12.6629 10.946C12.571 10.7288 12.4825 10.5195 12.4219 10.3741Z" fill="white"/>
</svg>
