<svg width="16" height="18" viewBox="0 0 16 16" fill="none" xmlns="http://www.w3.org/2000/svg">
<path fill-rule="evenodd" clip-rule="evenodd" d="M8.00024 4.776C8.27639 4.776 8.50024 4.99986 8.50024 5.276V10.724C8.50024 11.0001 8.27639 11.224 8.00024 11.224C7.7241 11.224 7.50024 11.0001 7.50024 10.724V5.276C7.50024 4.99986 7.7241 4.776 8.00024 4.776Z" fill="#70AF00"/>
<path fill-rule="evenodd" clip-rule="evenodd" d="M5.91674 7.93604C5.91672 7.93602 5.91675 7.93606 5.91674 7.93604L5.91747 7.93712L5.92058 7.94174L5.93375 7.96114C5.94554 7.97843 5.96321 8.00423 5.98617 8.03732C6.0321 8.10352 6.09902 8.1987 6.18198 8.31317C6.34839 8.54278 6.5771 8.84686 6.82894 9.14912C7.08308 9.45416 7.3498 9.74402 7.5922 9.95329C7.7135 10.058 7.81721 10.1324 7.90041 10.1784C7.95614 10.2093 7.98829 10.2193 8.00014 10.2225C8.012 10.2193 8.04422 10.2092 8.10007 10.1784C8.18338 10.1324 8.2872 10.0579 8.40865 9.95314C8.65132 9.74383 8.91837 9.45394 9.17285 9.14888C9.42502 8.8466 9.65407 8.5425 9.82073 8.31289C9.90382 8.19842 9.97084 8.10322 10.0168 8.03702C10.0398 8.00394 10.0575 7.97814 10.0693 7.96084L10.0825 7.94144L10.0857 7.93682L10.0863 7.93583C10.0863 7.93585 10.0863 7.93581 10.0863 7.93583C10.2403 7.70664 10.551 7.64549 10.7802 7.79944C11.0095 7.9534 11.0705 8.26405 10.9165 8.49328L10.5015 8.21451C10.9165 8.49328 10.9166 8.49322 10.9165 8.49328L10.9148 8.49584L10.9107 8.50198L10.8953 8.52454C10.882 8.544 10.8627 8.57212 10.8381 8.60764C10.7887 8.67867 10.7177 8.77952 10.63 8.9003C10.4552 9.14118 10.2119 9.46442 9.94074 9.78947C9.67188 10.1118 9.36461 10.4492 9.06178 10.7104C8.91047 10.8409 8.74875 10.9625 8.58371 11.0537C8.42484 11.1414 8.22248 11.2238 8.00013 11.2238C7.77774 11.2238 7.5754 11.1414 7.41656 11.0536C7.25155 10.9624 7.08992 10.8408 6.93872 10.7102C6.63613 10.449 6.32917 10.1115 6.06065 9.78923C5.78982 9.46416 5.54687 9.14091 5.37228 8.90001C5.28474 8.77923 5.21383 8.67838 5.16455 8.60735C5.1399 8.57182 5.12063 8.54371 5.10736 8.52424L5.09204 8.50167L5.0879 8.49554L5.08627 8.4931C5.08622 8.49303 5.08618 8.49298 5.50146 8.21451L5.08627 8.4931C4.93247 8.26375 4.99364 7.95303 5.22299 7.79923C5.45232 7.64545 5.76293 7.70674 5.91674 7.93604Z" fill="#70AF00"/>
<path fill-rule="evenodd" clip-rule="evenodd" d="M2.82903 2.8289C3.94088 1.71705 5.6601 1.33337 8.00016 1.33337C10.3402 1.33337 12.0594 1.71705 13.1713 2.8289C14.2832 3.94076 14.6668 5.65997 14.6668 8.00004C14.6668 10.3401 14.2832 12.0593 13.1713 13.1712C12.0594 14.283 10.3402 14.6667 8.00016 14.6667C5.6601 14.6667 3.94088 14.283 2.82903 13.1712C1.71717 12.0593 1.3335 10.3401 1.3335 8.00004C1.3335 5.65997 1.71717 3.94076 2.82903 2.8289ZM3.53613 3.53601C2.72082 4.35133 2.3335 5.71544 2.3335 8.00004C2.3335 10.2846 2.72082 11.6488 3.53613 12.4641C4.35145 13.2794 5.71556 13.6667 8.00016 13.6667C10.2848 13.6667 11.6489 13.2794 12.4642 12.4641C13.2795 11.6488 13.6668 10.2846 13.6668 8.00004C13.6668 5.71544 13.2795 4.35133 12.4642 3.53601C11.6489 2.7207 10.2848 2.33337 8.00016 2.33337C5.71556 2.33337 4.35145 2.7207 3.53613 3.53601Z" fill="#70AF00"/>
</svg>
