<svg width="28" height="28" viewBox="0 0 28 28" fill="none" xmlns="http://www.w3.org/2000/svg">
<path fill-rule="evenodd" clip-rule="evenodd" d="M18.2369 11.1955C18.4137 10.9834 18.7289 10.9548 18.941 11.1315C19.1532 11.3083 19.1818 11.6235 19.0051 11.8357L18.6209 11.5156C19.0051 11.8357 19.0051 11.8356 19.0051 11.8357L19.0041 11.8368L19.0022 11.8391L18.9955 11.8471L18.9707 11.8763C18.9493 11.9014 18.9182 11.9376 18.8781 11.9832C18.7981 12.0745 18.6824 12.2039 18.5377 12.3587C18.2488 12.6678 17.8413 13.0813 17.3689 13.4965C16.8983 13.91 16.3525 14.3347 15.7868 14.6585C15.2291 14.9777 14.6051 15.2262 13.9894 15.2262C13.3741 15.2262 12.7486 14.9778 12.1886 14.659C11.6205 14.3356 11.0712 13.9112 10.597 13.4978C10.121 13.0829 9.70987 12.6695 9.4182 12.3605C9.27207 12.2057 9.1552 12.0764 9.07437 11.9852C9.03394 11.9396 9.00248 11.9034 8.98084 11.8783L8.95584 11.8492L8.94905 11.8412L8.94712 11.8389L8.94632 11.838C8.94624 11.8379 8.94617 11.8378 9.32854 11.5156L8.94632 11.838C8.76839 11.6268 8.79519 11.3112 9.00637 11.1333C9.21751 10.9554 9.53288 10.9823 9.71082 11.1934C9.71079 11.1933 9.71085 11.1934 9.71082 11.1934M18.2369 11.1955L18.2358 11.1968L18.2309 11.2026L18.2101 11.2271C18.1914 11.249 18.1632 11.2818 18.1262 11.324C18.0523 11.4083 17.9437 11.5297 17.8071 11.6758C17.5333 11.9688 17.1497 12.3578 16.7088 12.7453C16.2661 13.1344 15.7763 13.5123 15.2901 13.7906C14.796 14.0734 14.3519 14.2262 13.9894 14.2262C13.6267 14.2262 13.1808 14.0732 12.6834 13.79C12.1943 13.5115 11.7006 13.1333 11.2541 12.744C10.8094 12.3563 10.422 11.9671 10.1453 11.674C10.0073 11.5278 9.89757 11.4064 9.82282 11.322C9.78546 11.2798 9.75689 11.247 9.73795 11.225L9.71688 11.2005L9.71197 11.1947L9.71082 11.1934" fill="white"/>
<path fill-rule="evenodd" clip-rule="evenodd" d="M8.12531 8.39942C7.03988 9.43841 6.54346 11.1564 6.54346 13.9738C6.54346 16.7908 7.03987 18.5088 8.12533 19.5479C9.21724 20.5932 11.0278 21.0711 13.98 21.0711C16.9321 21.0711 18.7427 20.5932 19.8346 19.5479C20.9201 18.5088 21.4165 16.7908 21.4165 13.9738C21.4165 11.1564 20.92 9.43841 19.8346 8.39942C18.7427 7.35423 16.9322 6.87646 13.98 6.87646C11.0277 6.87646 9.21721 7.35423 8.12531 8.39942ZM7.43382 7.67703C8.82209 6.34816 10.9798 5.87646 13.98 5.87646C16.9801 5.87646 19.1378 6.34816 20.5261 7.67703C21.9208 9.01209 22.4165 11.0928 22.4165 13.9738C22.4165 16.8544 21.9208 18.9351 20.5261 20.2702C19.1379 21.5992 16.9802 22.0711 13.98 22.0711C10.9798 22.0711 8.82206 21.5992 7.43381 20.2702C6.0391 18.9351 5.54346 16.8544 5.54346 13.9738C5.54346 11.0928 6.03909 9.01209 7.43382 7.67703Z" fill="white"/>
</svg>
