<svg width="72" height="72" viewBox="0 0 72 72" fill="none" xmlns="http://www.w3.org/2000/svg">
<path d="M32.7255 32.4145C31.7291 33.6644 31.2366 36.1096 31.2366 36.1096H35.2555C35.2555 36.1096 34.7629 33.6644 33.7666 32.4145C33.5091 32.0965 32.983 32.0965 32.7255 32.4145Z" fill="#FF8087"/>
<path d="M47.4579 23.2368C46.4616 24.4868 45.969 26.932 45.969 26.932H49.9879C49.9879 26.932 49.4954 24.4868 48.499 23.2368C48.2527 22.9189 47.7154 22.9189 47.4579 23.2368Z" fill="#FF8087"/>
<path d="M34.584 38.7412C34.584 31.8552 39.6552 26.2741 47.973 26.2741C56.2908 26.2741 61.362 31.8552 61.362 38.7412C61.362 45.6272 56.2908 51.2083 47.973 51.2083C39.6552 51.1974 34.584 45.6162 34.584 38.7412Z" fill="#D31527"/>
<path d="M36.6438 45.7259C38.8604 49.0263 42.7898 51.1973 47.973 51.1973C56.2907 51.1973 61.362 45.6162 61.362 38.7302C61.362 34.4649 59.4141 30.7039 55.9549 28.4561C57.2983 30.4517 58.0147 32.853 58.0147 35.4517C58.0147 42.3377 52.9435 47.9188 44.6257 47.9188C41.4688 47.9188 38.7708 47.1074 36.6438 45.7259Z" fill="#AF0011"/>
<path d="M19.8516 47.9188C19.8516 41.0329 24.9228 35.4517 33.2406 35.4517C41.5583 35.4517 46.6296 41.0329 46.6296 47.9188C46.6296 54.8048 41.5583 60.3859 33.2406 60.3859C24.9228 60.3859 19.8516 54.8048 19.8516 47.9188Z" fill="#FFF6D8"/>
<path d="M22.5271 47.9189C22.5271 53.807 26.8371 57.7544 33.2406 57.7544C39.644 57.7544 43.954 53.7961 43.954 47.9189C43.954 43.7632 41.8046 40.5724 38.2894 39.0592C36.8341 38.4342 35.1437 39.2237 34.6847 40.704L34.013 42.8641C33.901 43.2369 33.5764 43.4233 33.2517 43.4233C32.9271 43.4233 32.6024 43.2369 32.4905 42.8641L31.8188 40.704C31.3486 39.2127 29.6694 38.4342 28.2141 39.0592C24.6765 40.5724 22.5271 43.7632 22.5271 47.9189Z" fill="#D31527"/>
<path d="M24.2063 53.5767C26.0311 56.1973 29.2216 57.7653 33.2517 57.7653C39.6664 57.7653 43.9652 53.807 43.9652 47.9298C43.9652 44.6294 42.6106 41.943 40.2821 40.2105C41.3568 41.7566 41.9501 43.6754 41.9501 45.8574C41.9501 51.7456 37.6401 55.693 31.2367 55.693C28.4268 55.693 26.0199 54.9254 24.2063 53.5767Z" fill="#AF0011"/>
<path d="M19.2246 47.9188C19.2246 51.5153 20.5568 54.7938 22.9861 57.1623C25.5497 59.6623 29.0985 60.989 33.2517 60.989C37.114 60.989 40.4948 59.8267 43.0136 57.6228C44.7824 56.0767 46.0586 54.0482 46.7303 51.7675C47.1445 51.8004 47.5699 51.8114 47.9841 51.8114C52.1374 51.8114 55.6862 50.4846 58.2498 47.9846C60.6791 45.6162 62.0113 42.3267 62.0113 38.7412C62.0113 35.1557 60.6791 31.8662 58.2498 29.4978C56.2571 27.546 53.6711 26.318 50.6709 25.8684C50.9172 24.6952 52.1486 24.2675 52.2158 24.2456C52.5404 24.136 52.7196 23.7851 52.6076 23.4671C52.4957 23.1491 52.1486 22.9737 51.8128 23.0833C51.7456 23.1053 50.6485 23.4781 49.9544 24.4539C49.4842 23.5219 48.9357 22.864 48.3312 22.4912C48.1297 22.3706 47.8722 22.3706 47.6707 22.4912C47.0662 22.864 46.5176 23.5219 46.0474 24.4539C45.3533 23.4781 44.2563 23.1053 44.1891 23.0833C43.8644 22.9737 43.5062 23.1491 43.3943 23.4671C43.2823 23.7851 43.4614 24.136 43.7861 24.2456C43.8532 24.2675 45.0847 24.7061 45.331 25.8794C42.9912 26.2412 40.8754 27.0745 39.129 28.3465C37.3379 29.6513 35.9609 31.3618 35.0877 33.3684C34.6511 32.5789 34.1585 32.0088 33.61 31.6798C33.4085 31.5592 33.151 31.5592 32.9495 31.6798C32.345 32.0526 31.7964 32.7105 31.3262 33.6425C30.6321 32.6667 29.535 32.2938 29.4679 32.2719C29.1432 32.1623 28.785 32.3377 28.673 32.6557C28.5611 32.9737 28.7402 33.3245 29.0649 33.4342C29.132 33.4561 30.3635 33.8838 30.6098 35.057C27.6095 35.5066 25.0235 36.7456 23.0309 38.6864C20.5568 41.0438 19.2246 44.3224 19.2246 47.9188ZM34.4048 34.8816C34.0242 34.8596 33.6436 34.8487 33.2517 34.8487C32.8599 34.8487 32.4793 34.8596 32.0987 34.8816C32.345 34.2456 32.748 33.4452 33.2517 32.9627C33.7555 33.4452 34.1473 34.2456 34.4048 34.8816ZM49.1372 25.693C48.7566 25.671 48.376 25.6601 47.9841 25.6601C47.5923 25.6601 47.2117 25.671 46.8311 25.693C47.0774 25.057 47.4804 24.2566 47.9841 23.7741C48.4879 24.2675 48.8797 25.068 49.1372 25.693ZM20.4784 47.9188C20.4784 44.6513 21.6875 41.6798 23.8705 39.5417C26.199 37.2719 29.4343 36.0658 33.2405 36.0658C36.7781 36.0658 39.8567 37.1184 42.1404 39.1031C44.2786 40.9671 45.622 43.6096 45.9355 46.5592C45.9691 46.8991 46.2825 47.1403 46.6184 47.1074C46.9654 47.0745 47.2117 46.7675 47.1781 46.4386C46.8423 43.182 45.3422 40.2544 42.9688 38.193C41.0545 36.5263 38.6476 35.4627 35.9049 35.046C36.1512 33.8509 37.4274 33.4232 37.4386 33.4232C37.7633 33.3136 37.9424 32.9737 37.8304 32.6447C37.7185 32.3158 37.3714 32.1513 37.0356 32.261H37.0244C37.7633 31.1206 38.6924 30.1338 39.8119 29.3224C41.9949 27.7324 44.8048 26.8991 47.9506 26.8991C51.7568 26.8991 55.0033 28.0943 57.3206 30.375C59.5036 32.5131 60.7127 35.4846 60.7127 38.7522C60.7127 42.0197 59.5036 44.9912 57.3206 47.1294C54.9921 49.3991 51.7568 50.6053 47.9506 50.6053C47.6259 50.6053 47.3013 50.5943 46.9878 50.5724C47.0662 50.1776 47.1221 49.761 47.1669 49.3552C47.2005 49.0153 46.9542 48.7193 46.6072 48.6864C46.2601 48.6535 45.9579 48.8947 45.9243 49.2346C45.6332 52.1952 44.2898 54.8596 42.1404 56.7346C39.8567 58.7303 36.7669 59.7938 33.2181 59.7938C29.4119 59.7938 26.1654 58.5987 23.8481 56.318C21.6875 54.1579 20.4784 51.1864 20.4784 47.9188Z" fill="black"/>
<path d="M21.9001 47.9188C21.9001 50.978 22.986 53.5986 25.0571 55.4956C27.1057 57.3815 29.938 58.3793 33.2517 58.3793C36.5542 58.3793 39.3865 57.3815 41.4463 55.4956C43.5062 53.5986 44.6033 50.978 44.6033 47.9188C44.6033 43.5877 42.3979 40.1557 38.5692 38.5C37.7296 38.1381 36.7557 38.1491 35.9049 38.5219C35.0429 38.9057 34.3824 39.6403 34.1025 40.5285L33.4308 42.6886C33.4084 42.7653 33.3525 42.8092 33.2629 42.8092C33.1733 42.8092 33.1174 42.7653 33.095 42.6886L32.4233 40.5285C32.1434 39.6403 31.4941 38.9057 30.6209 38.5219C29.7701 38.1381 28.8074 38.1381 27.9565 38.5C26.9826 38.9166 26.0982 39.4649 25.3258 40.1228C25.0683 40.3421 25.0347 40.7368 25.2698 40.989C25.4937 41.2412 25.8967 41.2741 26.1542 41.0438C26.8259 40.4736 27.5983 39.9912 28.4603 39.6184C28.9865 39.3881 29.5686 39.3991 30.0948 39.6293C30.6321 39.8706 31.0463 40.3201 31.2142 40.8793L31.8859 43.0394C32.0762 43.6315 32.6248 44.0263 33.2517 44.0263C33.8786 44.0263 34.4272 43.6315 34.6175 43.0394L35.2892 40.8793C35.4683 40.3311 35.8713 39.8706 36.4086 39.6293C36.9348 39.3881 37.5169 39.3881 38.0431 39.6184C41.4015 41.0658 43.3382 44.0921 43.3382 47.9188C43.3382 50.6381 42.3867 52.9408 40.5843 54.5965C38.7708 56.2631 36.2295 57.1403 33.2517 57.1403C30.2739 57.1403 27.7327 56.2631 25.9191 54.5965C24.1167 52.9408 23.1652 50.6272 23.1652 47.9188C23.1652 46.1425 23.5682 44.5416 24.3742 43.16C24.5421 42.864 24.4414 42.4912 24.1391 42.3267C23.8369 42.1622 23.4562 42.2609 23.2883 42.557C22.3703 44.114 21.9001 45.9232 21.9001 47.9188Z" fill="black"/>
<path d="M41.0545 50.1557C40.8082 49.9145 40.4164 49.9145 40.1701 50.1557L39.4984 50.8136C39.2521 51.0548 39.2521 51.4386 39.4984 51.6798C39.6216 51.8005 39.7783 51.8553 39.9462 51.8553C40.1029 51.8553 40.2709 51.8005 40.394 51.6798L41.0657 51.0219C41.3008 50.7807 41.3008 50.3969 41.0545 50.1557Z" fill="black"/>
<path d="M38.9163 48.0285C39.0394 48.1491 39.1961 48.2039 39.3641 48.2039C39.5208 48.2039 39.6887 48.1491 39.8119 48.0285C40.0581 47.7872 40.0581 47.4035 39.8119 47.1622L39.1402 46.5043C38.8939 46.2631 38.502 46.2631 38.2558 46.5043C38.0095 46.7456 38.0095 47.1294 38.2558 47.3706L38.9163 48.0285Z" fill="black"/>
<path d="M38.043 49.9364C38.2893 49.6951 38.2893 49.3114 38.043 49.0701C37.7967 48.8289 37.4049 48.8289 37.1586 49.0701L36.487 49.728C36.2407 49.9693 36.2407 50.353 36.487 50.5943C36.6101 50.7149 36.7668 50.7697 36.9347 50.7697C37.1027 50.7697 37.2594 50.7149 37.3825 50.5943L38.043 49.9364Z" fill="black"/>
<path d="M37.226 44.9693V44.3114C37.226 43.9714 36.9461 43.6973 36.5991 43.6973C36.252 43.6973 35.9722 43.9714 35.9722 44.3114V44.9693C35.9722 45.3092 36.252 45.5833 36.5991 45.5833C36.9461 45.5833 37.226 45.3092 37.226 44.9693Z" fill="black"/>
<path d="M40.5955 43.7632C40.8418 43.5219 40.8418 43.1382 40.5955 42.8969C40.3492 42.6557 39.9574 42.6557 39.7111 42.8969L39.0394 43.5548C38.7932 43.796 38.7932 44.1798 39.0394 44.421C39.1626 44.5417 39.3193 44.5965 39.4872 44.5965C39.6552 44.5965 39.8119 44.5417 39.935 44.421L40.5955 43.7632Z" fill="black"/>
<path d="M30.2851 49.3553H30.9568C31.3038 49.3553 31.5837 49.0811 31.5837 48.7412C31.5837 48.4013 31.3038 48.1272 30.9568 48.1272H30.2851C29.9381 48.1272 29.6582 48.4013 29.6582 48.7412C29.6582 49.0811 29.9381 49.3553 30.2851 49.3553Z" fill="black"/>
<path d="M34.4719 47.8969C34.6286 47.8969 34.7965 47.8421 34.9197 47.7215C35.166 47.4803 35.166 47.0965 34.9197 46.8553L34.4495 46.3947C34.2032 46.1535 33.8114 46.1535 33.5651 46.3947C33.3188 46.636 33.3188 47.0197 33.5651 47.261L34.0353 47.7215C34.1584 47.8311 34.3151 47.8969 34.4719 47.8969Z" fill="black"/>
<path d="M37.3714 54.5855C37.6177 54.3443 37.6177 53.9605 37.3714 53.7193L36.6997 53.0614C36.4534 52.8202 36.0616 52.8202 35.8153 53.0614C35.569 53.3026 35.569 53.6864 35.8153 53.9276L36.487 54.5855C36.6102 54.7061 36.7669 54.761 36.9348 54.761C37.0915 54.7719 37.2483 54.7061 37.3714 54.5855Z" fill="black"/>
<path d="M34.5951 51.0877V50.4298C34.5951 50.0899 34.3152 49.8158 33.9682 49.8158C33.6212 49.8158 33.3413 50.0899 33.3413 50.4298V51.0877C33.3413 51.4276 33.6212 51.7018 33.9682 51.7018C34.3152 51.7018 34.5951 51.4276 34.5951 51.0877Z" fill="black"/>
<path d="M30.3747 52.7434C30.4979 52.8641 30.6546 52.9189 30.8225 52.9189C30.9793 52.9189 31.1472 52.8641 31.2703 52.7434L31.942 52.0855C32.1883 51.8443 32.1883 51.4605 31.942 51.2193C31.6957 50.9781 31.3039 50.9781 31.0576 51.2193L30.3859 51.8772C30.1285 52.1184 30.1285 52.5022 30.3747 52.7434Z" fill="black"/>
<path d="M29.5686 46.4934C29.6917 46.614 29.8485 46.6688 30.0164 46.6688C30.1843 46.6688 30.341 46.614 30.4642 46.4934L30.9344 46.0329C31.1807 45.7916 31.1807 45.4079 30.9344 45.1666C30.6881 44.9254 30.2963 44.9254 30.05 45.1666L29.5798 45.6272C29.3223 45.8684 29.3223 46.2522 29.5686 46.4934Z" fill="black"/>
<path d="M28.561 44.5965C28.908 44.5965 29.1879 44.3224 29.1879 43.9824V43.3245C29.1879 42.9846 28.908 42.7105 28.561 42.7105C28.214 42.7105 27.9341 42.9846 27.9341 43.3245V43.9824C27.9341 44.3224 28.214 44.5965 28.561 44.5965Z" fill="black"/>
<path d="M25.8408 46.6908L26.5125 47.3487C26.6356 47.4693 26.7924 47.5241 26.9603 47.5241C27.1282 47.5241 27.2849 47.4693 27.4081 47.3487C27.6544 47.1074 27.6544 46.7237 27.4081 46.4824L26.7364 45.8245C26.4901 45.5833 26.0983 45.5833 25.852 45.8245C25.5945 46.0548 25.5945 46.4495 25.8408 46.6908Z" fill="black"/>
<path d="M28.7513 52.6228C28.9976 52.3815 28.9976 51.9978 28.7513 51.7565C28.505 51.5153 28.1132 51.5153 27.8669 51.7565L27.1952 52.4144C26.9489 52.6557 26.9489 53.0394 27.1952 53.2807C27.3184 53.4013 27.4751 53.4561 27.643 53.4561C27.8109 53.4561 27.9677 53.4013 28.0908 53.2807L28.7513 52.6228Z" fill="black"/>
<path d="M27.173 49.8925V49.2346C27.173 48.8947 26.8931 48.6206 26.5461 48.6206C26.1991 48.6206 25.9192 48.8947 25.9192 49.2346V49.8925C25.9192 50.2324 26.1991 50.5066 26.5461 50.5066C26.8931 50.5066 27.173 50.2324 27.173 49.8925Z" fill="black"/>
<path d="M31.2368 54.5197C30.8897 54.5197 30.6099 54.7938 30.6099 55.1338C30.6099 55.4737 30.8897 55.7478 31.2368 55.7478H31.9085C32.2555 55.7478 32.5354 55.4737 32.5354 55.1338C32.5354 54.7938 32.2555 54.5197 31.9085 54.5197H31.2368Z" fill="black"/>
<path opacity="0.85" d="M24.3341 46.9301C23.7301 47.0624 23.0703 47.0183 22.3545 46.6986C20.1066 45.6952 20.1849 43.3357 20.2296 41.4393C20.2631 40.3588 20.2967 39.2341 19.9388 38.4954C19.5809 37.7567 18.5967 37.2605 17.5343 36.7313C15.9462 35.9374 13.9778 34.9562 14.0002 32.6407C14.0226 30.1599 16.4942 29.4874 18.2948 28.9912C19.3349 28.7045 20.5204 28.3738 20.8559 27.8445C21.2138 27.2602 21.3815 26.1907 21.5493 25.1653C21.8736 23.1365 22.265 20.6116 24.6025 20.0824C26.9399 19.5532 28.3938 21.6811 29.5681 23.3791C30.1608 24.2391 30.7759 25.1212 31.3575 25.4961C31.8943 25.8379 33.1022 25.6284 34.1647 25.4519C36.01 25.1322 38.5375 24.7022 39.6335 26.9294C40.6625 29.0133 39.3092 30.7443 38.2244 32.1225C37.4974 33.0377 36.8152 33.9087 36.8264 34.7246C36.8264 35.5405 37.352 36.5439 37.8441 37.5031C38.7165 39.19 39.8125 41.296 38.2244 43.1483C36.6363 44.9896 34.4331 44.1627 32.666 43.5011C31.6371 43.1152 30.5635 42.7183 29.8141 42.8837C29.0648 43.0491 28.2708 43.865 27.5103 44.6478C26.6379 45.585 25.5978 46.6545 24.3341 46.9301Z" fill="#DB1E46"/>
<path d="M17.0557 21.0854C17.0589 21.0653 17.0621 21.0451 17.0654 21.0247C17.2229 20.0386 17.4115 18.8579 17.8655 17.8553C18.3403 16.8067 19.1281 15.9036 20.4921 15.5947C21.8575 15.2856 22.961 15.7673 23.8442 16.5136C24.6876 17.2264 25.3703 18.2138 25.9403 19.0382C25.9534 19.0571 25.9664 19.076 25.9793 19.0947L25.9798 19.0954C26.2778 19.5277 26.5697 19.9483 26.8571 20.3067C27.1489 20.6707 27.4066 20.9324 27.627 21.0749C27.6749 21.105 27.7694 21.1413 27.9352 21.162C28.098 21.1824 28.2985 21.1841 28.5324 21.1693C28.9883 21.1405 29.5084 21.0541 30.0306 20.9674L30.0793 20.9593L30.0828 20.9587L30.0955 20.9565C31.0012 20.7995 32.1635 20.5981 33.245 20.7398C34.3679 20.8869 35.4432 21.4102 36.0822 22.7086C36.6707 23.9011 36.5732 25.0054 36.186 25.9759C35.8115 26.9146 35.159 27.7436 34.6261 28.4205L34.6173 28.4318L34.6159 28.4335C34.2481 28.8965 33.9176 29.3169 33.6775 29.7177C33.4356 30.1217 33.3226 30.447 33.3264 30.7178L33.3265 30.7246H33.3264C33.3264 31.0354 33.429 31.4186 33.6137 31.8712C33.7886 32.2997 34.0183 32.7474 34.256 33.2105L34.2883 33.2734L34.289 33.2749L34.3099 33.3152C34.7348 34.1367 35.2508 35.1344 35.4481 36.1701C35.6549 37.2558 35.5167 38.4091 34.604 39.4737L34.603 39.4748C33.6878 40.536 32.576 40.8292 31.4818 40.7623C30.4381 40.6986 29.3885 40.3056 28.5269 39.9829L28.4907 39.9694L28.4904 39.9693C27.9712 39.7745 27.4707 39.5888 27.0101 39.4698C26.5408 39.3485 26.1788 39.3152 25.9219 39.3719C25.6667 39.4282 25.3563 39.6103 24.9864 39.9184C24.6243 40.2199 24.2557 40.598 23.8726 40.9924C23.022 41.9061 21.8806 43.1046 20.4406 43.4186C19.7312 43.574 18.9627 43.5178 18.1507 43.1552C16.8631 42.5804 16.2362 41.6012 15.9494 40.5336C15.6795 39.5289 15.7059 38.425 15.7278 37.5101C15.7284 37.4824 15.7291 37.4548 15.7297 37.4275L15.7298 37.4238C15.7468 36.8786 15.7624 36.3516 15.732 35.8707C15.7013 35.3855 15.6258 34.9961 15.4888 34.7134C15.3671 34.4622 15.1183 34.2142 14.7233 33.9508C14.3308 33.689 13.8489 33.4466 13.3113 33.1788L13.2821 33.1643C12.5114 32.7818 11.5701 32.3145 10.829 31.6329C10.0574 30.9231 9.48749 29.9679 9.50021 28.6362L17.0557 21.0854ZM17.0557 21.0854C17.0517 21.11 17.0477 21.1346 17.0436 21.1592C16.9632 21.6512 16.8849 22.1303 16.7866 22.5584C16.682 23.0133 16.5656 23.3593 16.4319 23.5794C16.4026 23.6243 16.3338 23.6955 16.194 23.7835C16.0554 23.8708 15.8745 23.9576 15.6561 24.0437C15.2172 24.2168 14.6876 24.3643 14.162 24.5092C14.1459 24.5136 14.1298 24.5181 14.1135 24.5225C13.2364 24.7641 12.1157 25.0728 11.2115 25.6504C10.2596 26.2584 9.51337 27.1877 9.50021 28.6359L17.0557 21.0854ZM25.8141 38.8837C25.0648 39.0491 24.2708 39.865 23.5103 40.6478L33.8075 33.4317C33.8197 33.4555 33.8319 33.4793 33.8441 33.5031L33.8513 33.517C34.7225 35.2016 35.8081 37.301 34.2244 39.1483C32.6376 40.988 30.4368 40.1641 28.6706 39.5028L28.666 39.5011C27.6371 39.1152 26.5635 38.7183 25.8141 38.8837ZM14.6197 30.6195L14.6178 30.6186C13.8278 30.2263 13.2606 29.9273 12.8854 29.6079C12.5392 29.3131 12.3978 29.037 12.4014 28.6682C12.4033 28.5151 12.4394 28.4099 12.4986 28.322C12.5624 28.2272 12.674 28.1217 12.8725 28.0064C13.286 27.7663 13.9451 27.5551 14.9411 27.2817C15.6605 27.0853 16.4401 26.8713 17.1293 26.5515C17.8228 26.2296 18.4698 25.7811 18.8926 25.0872C19.5074 24.092 19.7205 22.7445 19.9044 21.5819L19.9105 21.5432C19.9106 21.5428 19.9106 21.5424 19.9107 21.542C20.0745 20.534 20.2187 19.7582 20.4314 19.2079C20.6411 18.6651 20.8668 18.4692 21.1239 18.412C21.3918 18.3535 21.6876 18.4388 22.1138 18.8394C22.5466 19.2461 23.0148 19.8866 23.6017 20.7322C24.2817 21.7269 25.0624 22.8539 26.0552 23.5024L26.0558 23.5028C26.7437 23.9505 27.5237 24.0802 28.2915 24.0758C29.0406 24.0714 29.824 23.9378 30.5484 23.8143L30.5834 23.8083C30.5835 23.8083 30.5836 23.8083 30.5837 23.8083C31.6099 23.635 32.2998 23.5442 32.7801 23.5847C33.0105 23.6042 33.1573 23.652 33.2563 23.7109C33.3481 23.7655 33.4269 23.8462 33.4954 23.9866L33.4968 23.9895C33.6614 24.3213 33.6526 24.6293 33.4676 25.0415C33.2669 25.4889 32.8847 25.9985 32.3445 26.6881C32.3441 26.6886 32.3437 26.6891 32.3433 26.6895L32.3217 26.7168C31.4986 27.7523 30.4237 29.1046 30.4363 30.7615L30.4364 30.7621C30.4488 32.1594 31.1301 33.4683 31.7225 34.604C32.1972 35.5288 32.491 36.165 32.5978 36.6576C32.649 36.894 32.6509 37.0728 32.6206 37.2184C32.5914 37.3591 32.5266 37.4961 32.4021 37.6431C32.2914 37.7705 32.1832 37.8408 32.0679 37.8806C31.9469 37.9224 31.7875 37.941 31.5626 37.9189C31.0926 37.8726 30.458 37.6646 29.5244 37.3131L29.5234 37.3128L29.4651 37.291C28.2139 36.8229 26.7604 36.2791 25.3045 36.5981C23.8728 36.9117 22.8073 38.0005 21.8961 38.9317C21.8638 38.9646 21.8318 38.9973 21.7999 39.0298L21.7975 39.0323C21.1075 39.746 20.624 40.2026 20.2199 40.4425C20.0267 40.5573 19.8751 40.6075 19.7482 40.6206C19.6267 40.6331 19.4982 40.6148 19.3427 40.5447L19.3419 40.5443C19.1626 40.464 19.0427 40.3669 18.954 40.2511C18.8628 40.132 18.7866 39.9694 18.7303 39.7345C18.6127 39.2445 18.6024 38.5451 18.6307 37.5081L18.6307 37.5073C18.6316 37.4695 18.6326 37.4316 18.6336 37.3934C18.6663 36.15 18.7038 34.7237 18.1122 33.486L18.1116 33.4845C17.4037 32.0153 15.8849 31.2538 14.7033 30.6615C14.6752 30.6474 14.6474 30.6334 14.6197 30.6195Z" fill="white" stroke="#DB1E46"/>
</svg>
