<svg width="72" height="72" viewBox="0 0 72 72" fill="none" xmlns="http://www.w3.org/2000/svg">
<path d="M32.9737 39.6183L30.3652 39.8508C29.9573 39.6183 29.1737 39.0094 28.8087 38.633C27.7675 37.5591 27.1878 36.2306 27.0805 34.9574C27.059 34.6585 27.2951 34.4149 27.585 34.4371C28.8087 34.5478 30.0969 35.1456 31.1489 36.2195C31.9325 37.0388 32.7161 38.4116 32.9737 39.6183Z" fill="#AFDC82"/>
<path d="M32.8342 39.6183L35.4427 39.8508C35.8506 39.6183 36.6343 39.0094 36.9992 38.633C38.0405 37.5591 38.6202 36.2306 38.7275 34.9574C38.749 34.6585 38.5128 34.4149 38.223 34.4371C36.9993 34.5478 35.7111 35.1456 34.6591 36.2195C33.8755 37.0388 33.0919 38.4116 32.8342 39.6183Z" fill="#96CD82"/>
<path d="M37.2031 55.6159C39.2105 52.3278 41.8083 50.7115 41.8083 46.748C41.8083 41.6775 36.7415 39.1755 32.6087 39.1755C28.4759 39.1755 23.4092 41.6886 23.4092 46.748C23.4092 50.7004 26.0069 52.3278 28.0143 55.6159C30.0432 58.9372 31.1596 59.4133 32.6195 59.4133C34.0579 59.4133 35.1743 58.9372 37.2031 55.6159Z" fill="#E0161B"/>
<path d="M30.7195 58.8929C31.3528 59.3025 31.9432 59.4132 32.598 59.4132C34.0472 59.4132 35.1743 58.9372 37.2032 55.6159C39.2105 52.3278 41.8083 50.7114 41.8083 46.748C41.8083 43.9249 40.2303 41.8989 38.1264 40.6479C38.6201 41.9432 38.8563 43.4378 38.6953 45.1206C38.2337 50.0472 35.4534 51.8075 33.0811 55.6934C32.1257 57.2433 31.3743 58.2508 30.7195 58.8929Z" fill="#B70A0E"/>
<path d="M48.8717 34.8356L46.8751 36.5849C46.4135 36.6291 45.4366 36.607 44.9214 36.5074C43.4615 36.2417 42.2484 35.4999 41.4648 34.5367C41.2823 34.3042 41.336 33.9721 41.5829 33.8171C42.6456 33.175 44.0304 32.8982 45.4903 33.1639C46.5745 33.3521 47.9807 34.0053 48.8717 34.8356Z" fill="#B8EE4C"/>
<path d="M48.7535 34.9242L51.0185 33.5735C51.2225 33.1418 51.523 32.1786 51.6089 31.6583C51.8666 30.1526 51.5982 28.7244 50.9756 27.6284C50.8253 27.3738 50.5033 27.3074 50.2778 27.5066C49.3332 28.3259 48.614 29.5769 48.3671 31.0715C48.1739 32.1897 48.2919 33.7839 48.7535 34.9242Z" fill="#9DD726"/>
<path d="M61.2593 45.4085C61.0661 41.5336 62.2791 38.6662 60.0678 35.4335C57.2446 31.2929 51.6948 32.245 48.3134 34.7028C44.932 37.1606 42.1947 42.22 45.0179 46.3606C47.2292 49.5933 50.2564 49.3829 53.7237 50.8775C57.2339 52.3943 58.4147 52.1175 59.6062 51.2539C60.8085 50.3793 61.4633 49.3276 61.2593 45.4085Z" fill="#E0161B"/>
<path d="M57.7922 51.9403C58.5437 51.896 59.0804 51.6303 59.6171 51.2428C60.7979 50.3793 61.4527 49.3275 61.2595 45.4084C61.0663 41.5336 62.2793 38.6662 60.068 35.4334C58.49 33.1196 56.064 32.4 53.6487 32.6325C54.7758 33.3964 55.8063 34.4813 56.6222 35.9538C58.9945 40.2493 57.7064 43.3381 57.9318 47.9326C58.0177 49.7482 57.964 51.0214 57.7922 51.9403Z" fill="#B70A0E"/>
<path d="M22.8296 46.748C22.8296 49.7261 24.2144 51.4975 25.685 53.3685C26.2969 54.1545 26.9409 54.9738 27.5206 55.9259C29.6246 59.369 30.8805 60 32.6088 60C33.2958 60 34.1224 59.9114 35.0241 59.2361C35.8399 58.6272 36.6772 57.5755 37.6863 55.9259C38.2659 54.9738 38.91 54.1545 39.5219 53.3685C40.9925 51.4975 42.3773 49.7261 42.3773 46.748C42.3773 44.2349 41.2394 42.0982 39.0817 40.5704C38.4484 40.1276 37.7399 39.7401 36.9992 39.4412C37.1388 39.3194 37.2783 39.1865 37.4072 39.0537C38.6631 37.7584 39.3608 36.0645 39.3179 34.4149C39.3072 34.1049 39.0603 33.8503 38.7597 33.8392C37.1603 33.7949 35.5179 34.5146 34.2619 35.8099C33.9936 36.0866 33.7574 36.3745 33.5427 36.6734C33.8647 31.2154 35.4964 27.3073 36.9026 24.9271C37.6218 23.6982 38.3411 22.7461 38.9315 22.0597C38.8134 23.1004 38.8993 24.13 39.1784 25.0821C39.6936 26.787 40.81 28.1487 42.4095 29.0012C44.9428 30.3519 46.3813 31.9461 47.1112 33.0089C46.6282 32.7986 46.1236 32.6436 45.5976 32.555C43.8479 32.245 42.1089 32.6325 40.8207 33.6178C40.5739 33.806 40.5202 34.1603 40.6812 34.4149C41.5722 35.7877 43.0857 36.762 44.8355 37.072C44.9321 37.0941 45.0394 37.1052 45.1361 37.1162C44.5779 37.9244 44.127 38.788 43.805 39.6736C42.8925 42.2089 43.1502 44.6335 44.5564 46.6816C46.2202 49.1172 48.3457 49.7372 50.5892 50.4014C51.5339 50.6782 52.5107 50.9661 53.5198 51.3978C55.3661 52.1949 56.6328 52.5271 57.6204 52.5271C58.5757 52.5271 59.2628 52.2171 59.9605 51.7078C60.5294 51.2982 61.152 50.7336 61.5063 49.6486C61.8283 48.6744 61.9357 47.3126 61.8391 45.3641C61.7854 44.2349 61.8498 43.1942 61.9142 42.1757C62.0645 39.7733 62.204 37.5037 60.5402 35.0681C59.3057 33.2635 57.4808 32.2007 55.248 32.0125C54.9367 31.9904 54.6576 32.2229 54.6254 32.555C54.604 32.8761 54.8294 33.1639 55.1514 33.1971C57.03 33.3632 58.565 34.2378 59.5955 35.7545C61.0232 37.8469 60.9052 39.729 60.7549 42.0982C60.6905 43.1389 60.626 44.2238 60.6797 45.4195C60.8837 49.2722 60.2289 50.0582 59.2842 50.7446C58.3396 51.431 57.4057 51.7964 53.9491 50.3129C52.8757 49.8479 51.8666 49.5601 50.8898 49.2722C48.6677 48.619 46.918 48.1098 45.4796 46.0173C43.9875 43.8474 44.3202 41.6 44.8677 40.1054C45.5332 38.2566 46.9395 36.4077 48.6248 35.1788C49.9022 34.2489 51.448 33.5846 52.9616 33.3189C53.2729 33.2635 53.4876 32.9536 53.4231 32.6325C53.3695 32.3114 53.0689 32.09 52.7576 32.1454C52.5107 32.1897 52.2638 32.245 52.0169 32.3004C52.0599 32.1122 52.1028 31.935 52.135 31.7468C52.4356 29.9422 52.0599 28.1487 51.1045 26.8202C50.922 26.5656 50.5785 26.5102 50.3316 26.6763C49.0005 27.5952 48.0559 29.1562 47.7553 30.9608C47.7016 31.2597 47.6694 31.5586 47.6587 31.8575C46.7677 30.7172 45.2756 29.2337 42.8925 27.9605C40.7134 26.7981 39.114 24.0193 40.4558 20.4212C40.5524 20.1776 40.4665 19.8898 40.2626 19.7348C40.0586 19.5798 39.7795 19.5798 39.5755 19.7348C39.5004 19.7901 37.7077 21.2183 35.9043 24.2739C34.4015 26.8202 32.641 30.994 32.3404 36.8395C32.1043 36.4852 31.8252 36.142 31.5246 35.8209C30.2687 34.5256 28.6263 33.806 27.0268 33.8503C26.7262 33.8614 26.4793 34.116 26.4686 34.426C26.4257 36.0756 27.1234 37.7694 28.3794 39.0647C28.4545 39.1422 28.5297 39.2197 28.6048 39.2862C27.6065 39.6404 26.6726 40.1386 25.8782 40.7254C25.6206 40.9136 25.5669 41.29 25.7494 41.5557C25.9319 41.8214 26.2969 41.8768 26.5545 41.6886C28.1539 40.4929 30.3975 39.7733 32.5551 39.7733C34.6162 39.7733 36.7953 40.4375 38.384 41.5557C39.6614 42.4635 41.1857 44.091 41.1857 46.7591C41.1857 49.3165 40.0371 50.7779 38.588 52.6378C37.9546 53.457 37.2891 54.2984 36.6772 55.3059C34.6806 58.5718 33.7145 58.8265 32.5659 58.8265C31.4173 58.8265 30.4404 58.5718 28.4545 55.3059C27.8319 54.2874 27.1771 53.446 26.533 52.6378C25.0839 50.7889 23.9353 49.3165 23.9353 46.7591C23.9353 45.5081 24.268 44.3678 24.9336 43.3714C25.1161 43.1057 25.0516 42.7292 24.7833 42.5521C24.5257 42.3639 24.1607 42.4303 23.9889 42.7071C23.2375 43.8917 22.8296 45.2534 22.8296 46.748ZM50.7288 32.71C50.1384 32.9425 49.5587 33.2082 49.0112 33.5292C48.8287 32.7764 48.7965 31.9572 48.9361 31.149C49.1508 29.8869 49.7305 28.7798 50.557 28.0159C51.0937 29.0123 51.2762 30.2633 51.0615 31.5254C50.9757 31.935 50.8683 32.3336 50.7288 32.71ZM47.5084 34.5588C46.9717 34.9906 46.4779 35.4667 46.027 35.987C45.6942 35.987 45.3615 35.9649 45.0394 35.8984C43.8157 35.677 42.7422 35.0792 42.0016 34.2267C42.9677 33.6732 44.1807 33.485 45.4044 33.7064C46.1773 33.8503 46.8965 34.1381 47.5084 34.5588ZM31.9969 38.5998C31.3314 38.633 30.6551 38.7326 30.0003 38.8876C29.7319 38.6883 29.4743 38.4669 29.2274 38.2233C28.3472 37.3155 27.7997 36.1863 27.6816 35.057C28.7765 35.1788 29.8715 35.7434 30.7517 36.6513C31.3099 37.227 31.7286 37.8912 31.9969 38.5998ZM35.6682 38.9983C35.0563 38.8323 34.4337 38.7105 33.8003 38.644C34.0687 37.9134 34.4981 37.238 35.067 36.6513C35.9472 35.7434 37.0422 35.1788 38.1371 35.057C38.0083 36.1863 37.4716 37.3155 36.5913 38.2233C36.3015 38.5112 35.9902 38.7769 35.6682 38.9983Z" fill="black"/>
<path d="M32.0291 46.7591C32.0291 47.0912 32.2867 47.3458 32.598 47.3458C32.92 47.3458 33.1669 47.0801 33.1669 46.7591V46.128C33.1669 45.7959 32.9093 45.5413 32.598 45.5413C32.2759 45.5413 32.0291 45.807 32.0291 46.128V46.7591Z" fill="black"/>
<path d="M26.4686 45.5413C26.1466 45.5413 25.8997 45.807 25.8997 46.128V46.7591C25.8997 47.0912 26.1573 47.3458 26.4686 47.3458C26.7799 47.3458 27.0375 47.0801 27.0375 46.7591V46.128C27.0483 45.807 26.7906 45.5413 26.4686 45.5413Z" fill="black"/>
<path d="M38.7384 45.5413C38.4163 45.5413 38.1694 45.807 38.1694 46.128V46.7591C38.1694 47.0912 38.4271 47.3458 38.7384 47.3458C39.0604 47.3458 39.3073 47.0801 39.3073 46.7591V46.128C39.3073 45.807 39.0497 45.5413 38.7384 45.5413Z" fill="black"/>
<path d="M35.0991 46.7591C35.0991 47.0912 35.3567 47.3458 35.6681 47.3458C35.9794 47.3458 36.237 47.0801 36.237 46.7591V46.128C36.237 45.7959 35.9794 45.5413 35.6681 45.5413C35.3567 45.5413 35.0991 45.807 35.0991 46.128V46.7591Z" fill="black"/>
<path d="M28.959 46.7591C28.959 47.0912 29.2166 47.3458 29.5279 47.3458C29.85 47.3458 30.0968 47.0801 30.0968 46.7591V46.128C30.0968 45.7959 29.8392 45.5413 29.5279 45.5413C29.2059 45.5413 28.959 45.807 28.959 46.128V46.7591Z" fill="black"/>
<path d="M32.0291 52.4606V53.0917C32.0291 53.4238 32.2867 53.6784 32.598 53.6784C32.92 53.6784 33.1669 53.4127 33.1669 53.0917V52.4606C33.1669 52.1285 32.9093 51.8739 32.598 51.8739C32.2867 51.8628 32.0291 52.1285 32.0291 52.4606Z" fill="black"/>
<path d="M35.0991 52.4607V53.0917C35.0991 53.4238 35.3567 53.6785 35.6681 53.6785C35.9794 53.6785 36.237 53.4128 36.237 53.0917V52.4607C36.237 52.1285 35.9794 51.8739 35.6681 51.8739C35.3567 51.8739 35.0991 52.1285 35.0991 52.4607Z" fill="black"/>
<path d="M28.959 52.4606V53.0917C28.959 53.4238 29.2166 53.6784 29.5279 53.6784C29.85 53.6784 30.0968 53.4127 30.0968 53.0917V52.4606C30.0968 52.1285 29.8392 51.8739 29.5279 51.8739C29.2166 51.8628 28.959 52.1285 28.959 52.4606Z" fill="black"/>
<path d="M30.4941 49.9254C30.4941 50.2575 30.7518 50.5121 31.0631 50.5121C31.3851 50.5121 31.632 50.2464 31.632 49.9254V49.2943C31.632 48.9622 31.3744 48.7076 31.0631 48.7076C30.741 48.7076 30.4941 48.9733 30.4941 49.2943V49.9254Z" fill="black"/>
<path d="M36.6235 49.2944V49.9254C36.6235 50.2575 36.8812 50.5122 37.1925 50.5122C37.5145 50.5122 37.7614 50.2465 37.7614 49.9254V49.2944C37.7614 48.9622 37.5038 48.7076 37.1925 48.7076C36.8812 48.6965 36.6235 48.9622 36.6235 49.2944Z" fill="black"/>
<path d="M33.5642 49.9254C33.5642 50.2575 33.8218 50.5121 34.1331 50.5121C34.4552 50.5121 34.7021 50.2464 34.7021 49.9254V49.2943C34.7021 48.9622 34.4444 48.7076 34.1331 48.7076C33.8111 48.7076 33.5642 48.9733 33.5642 49.2943V49.9254Z" fill="black"/>
<path d="M27.4241 49.2944V49.9254C27.4241 50.2575 27.6817 50.5122 27.993 50.5122C28.315 50.5122 28.5619 50.2465 28.5619 49.9254V49.2944C28.5619 48.9622 28.3043 48.7076 27.993 48.7076C27.6817 48.6965 27.4241 48.9622 27.4241 49.2944Z" fill="black"/>
<path d="M30.4941 43.6039C30.4941 43.936 30.7518 44.1906 31.0631 44.1906C31.3851 44.1906 31.632 43.9249 31.632 43.6039V42.9728C31.632 42.6407 31.3744 42.386 31.0631 42.386C30.741 42.386 30.4941 42.6518 30.4941 42.9728V43.6039Z" fill="black"/>
<path d="M36.6235 43.6039C36.6235 43.936 36.8812 44.1906 37.1925 44.1906C37.5145 44.1906 37.7614 43.9249 37.7614 43.6039V42.9728C37.7614 42.6407 37.5038 42.386 37.1925 42.386C36.8704 42.386 36.6235 42.6518 36.6235 42.9728V43.6039Z" fill="black"/>
<path d="M33.5642 43.6039C33.5642 43.936 33.8218 44.1906 34.1331 44.1906C34.4552 44.1906 34.7021 43.9249 34.7021 43.6039V42.9728C34.7021 42.6407 34.4444 42.386 34.1331 42.386C33.8111 42.386 33.5642 42.6518 33.5642 42.9728V43.6039Z" fill="black"/>
<path d="M27.4241 43.6039C27.4241 43.936 27.6817 44.1906 27.993 44.1906C28.315 44.1906 28.5619 43.9249 28.5619 43.6039V42.9728C28.5619 42.6407 28.3043 42.386 27.993 42.386C27.671 42.386 27.4241 42.6518 27.4241 42.9728V43.6039Z" fill="black"/>
<path d="M30.4941 55.6159V56.2469C30.4941 56.5791 30.7518 56.8337 31.0631 56.8337C31.3851 56.8337 31.632 56.568 31.632 56.2469V55.6159C31.632 55.2837 31.3744 55.0291 31.0631 55.0291C30.7518 55.0291 30.4941 55.2948 30.4941 55.6159Z" fill="black"/>
<path d="M33.5642 55.6159V56.2469C33.5642 56.5791 33.8218 56.8337 34.1331 56.8337C34.4552 56.8337 34.7021 56.568 34.7021 56.2469V55.6159C34.7021 55.2837 34.4444 55.0291 34.1331 55.0291C33.8218 55.0291 33.5642 55.2948 33.5642 55.6159Z" fill="black"/>
<path d="M52.6825 40.0169C52.5 39.7512 52.1458 39.6847 51.8774 39.8729C51.6198 40.0611 51.5553 40.4265 51.7378 40.7033L52.0921 41.2236C52.1994 41.3897 52.3819 41.4782 52.5644 41.4782C52.6825 41.4782 52.7898 41.445 52.8972 41.3675C53.1548 41.1793 53.2192 40.814 53.0367 40.5483L52.6825 40.0169Z" fill="black"/>
<path d="M47.6693 43.6592C47.4868 43.3935 47.1326 43.3271 46.8642 43.5153C46.6066 43.7035 46.5422 44.0688 46.7247 44.3456L47.0789 44.8659C47.1862 45.032 47.3687 45.1206 47.5512 45.1206C47.6693 45.1206 47.7766 45.0874 47.884 45.0099C48.1416 44.8216 48.206 44.4563 48.0235 44.1795L47.6693 43.6592Z" fill="black"/>
<path d="M58.0497 36.8838L57.6954 36.3634C57.5129 36.0977 57.1587 36.0313 56.8903 36.2195C56.6327 36.4077 56.5683 36.773 56.7508 37.0498L57.105 37.5702C57.2124 37.7362 57.3948 37.8248 57.5773 37.8248C57.6954 37.8248 57.8028 37.7916 57.9101 37.7141C58.1677 37.5259 58.2321 37.1495 58.0497 36.8838Z" fill="black"/>
<path d="M55.0764 39.6405C55.1944 39.6405 55.3018 39.6073 55.4091 39.5298C55.6668 39.3415 55.7312 38.9762 55.5487 38.6994L55.1944 38.1791C55.012 37.9134 54.6577 37.847 54.3894 38.0352C54.1317 38.2234 54.0673 38.5887 54.2498 38.8655L54.604 39.3858C54.7114 39.5519 54.8939 39.6405 55.0764 39.6405Z" fill="black"/>
<path d="M50.1705 41.8325C49.988 41.5668 49.6338 41.5003 49.3654 41.6885C49.1078 41.8768 49.0434 42.2421 49.2259 42.5189L49.5801 43.0392C49.6875 43.2053 49.8699 43.2938 50.0524 43.2938C50.1705 43.2938 50.2779 43.2606 50.3852 43.1831C50.6428 42.9949 50.7072 42.6296 50.5248 42.3639L50.1705 41.8325Z" fill="black"/>
<path d="M56.0961 46.6373C56.2142 46.6373 56.3216 46.6041 56.4289 46.5266C56.6866 46.3384 56.751 45.973 56.5685 45.6963L56.2142 45.1759C56.0317 44.9102 55.6775 44.8438 55.4199 45.032C55.1622 45.2202 55.0978 45.5855 55.2803 45.8623L55.6346 46.3827C55.7419 46.5487 55.9244 46.6373 56.0961 46.6373Z" fill="black"/>
<path d="M58.6079 44.8106C58.7259 44.8106 58.8333 44.7774 58.9406 44.6999C59.1983 44.5117 59.2627 44.1463 59.0802 43.8806L58.7259 43.3603C58.5435 43.0946 58.1892 43.0282 57.9316 43.2164C57.674 43.4046 57.6095 43.7699 57.792 44.0467L58.1463 44.567C58.2536 44.722 58.4254 44.8106 58.6079 44.8106Z" fill="black"/>
<path d="M54.0672 47.523L53.713 47.0026C53.5305 46.7369 53.1763 46.6705 52.9079 46.8587C52.6503 47.0469 52.5859 47.4123 52.7684 47.689L53.1226 48.2094C53.2299 48.3754 53.4124 48.464 53.5949 48.464C53.713 48.464 53.8203 48.4308 53.9277 48.3533C54.1853 48.154 54.2497 47.7887 54.0672 47.523Z" fill="black"/>
<path d="M53.1976 43.5153C53.0151 43.2496 52.6609 43.1831 52.4033 43.3713C52.1456 43.5596 52.0812 43.9249 52.2637 44.2017L52.618 44.722C52.7253 44.8881 52.9078 44.9766 53.0903 44.9766C53.2084 44.9766 53.3157 44.9434 53.4231 44.8659C53.6807 44.6777 53.7451 44.3124 53.5626 44.0467L53.1976 43.5153Z" fill="black"/>
<path d="M58.0927 41.3122C58.2108 41.3122 58.3181 41.2789 58.4255 41.2014C58.6831 41.0132 58.7475 40.6479 58.565 40.3711L58.2108 39.8508C58.0283 39.5851 57.6741 39.5187 57.4057 39.7069C57.1481 39.8951 57.0837 40.2604 57.2662 40.5372L57.6204 41.0575C57.7385 41.2236 57.9102 41.3122 58.0927 41.3122Z" fill="black"/>
<path d="M55.5915 43.1389C55.7096 43.1389 55.8169 43.1057 55.9243 43.0282C56.1819 42.84 56.2463 42.4746 56.0638 42.2089L55.7096 41.6886C55.5271 41.4229 55.1729 41.3565 54.9045 41.5447C54.6469 41.7329 54.5824 42.0982 54.7649 42.375L55.1192 42.8953C55.2265 43.0503 55.409 43.1389 55.5915 43.1389Z" fill="black"/>
<path d="M50.6859 45.3309C50.5034 45.0652 50.1492 44.9988 49.8915 45.187C49.6339 45.3752 49.5695 45.7406 49.752 46.0173L50.1062 46.5377C50.2136 46.7038 50.3961 46.7923 50.5786 46.7923C50.6966 46.7923 50.804 46.7591 50.9113 46.6816C51.169 46.4934 51.2334 46.1281 51.0509 45.8513L50.6859 45.3309Z" fill="black"/>
<path d="M50.0096 38.8544L49.6554 38.3341C49.4729 38.0684 49.1187 38.0019 48.8503 38.1901C48.5927 38.3783 48.5282 38.7437 48.7107 39.0205L49.065 39.5408C49.1723 39.7069 49.3548 39.7954 49.5373 39.7954C49.6554 39.7954 49.7627 39.7622 49.8701 39.6847C50.1384 39.4965 50.1921 39.1201 50.0096 38.8544Z" fill="black"/>
<path d="M54.6683 34.6917C54.4858 34.426 54.1316 34.3595 53.874 34.5477C53.6163 34.7359 53.5519 35.1013 53.7344 35.367L54.0887 35.8873C54.196 36.0534 54.3785 36.142 54.561 36.142C54.6791 36.142 54.7864 36.1087 54.8938 36.0313C55.1514 35.843 55.2158 35.4777 55.0333 35.2009L54.6683 34.6917Z" fill="black"/>
<path d="M51.2333 37.2048L51.5875 37.7251C51.6948 37.8912 51.8773 37.9798 52.0598 37.9798C52.1779 37.9798 52.2852 37.9465 52.3926 37.869C52.6502 37.6808 52.7146 37.3155 52.5321 37.0387L52.1779 36.5184C51.9954 36.2527 51.6412 36.1863 51.3728 36.3745C51.1044 36.5627 51.0508 36.9391 51.2333 37.2048Z" fill="black"/>
<path d="M47.5084 40.6811L47.1542 40.1608C46.9717 39.8951 46.6175 39.8286 46.3491 40.0169C46.0808 40.2051 46.0271 40.5704 46.2096 40.8472L46.5638 41.3675C46.6712 41.5336 46.8536 41.6221 47.0361 41.6221C47.1542 41.6221 47.2616 41.5889 47.3689 41.5114C47.6265 41.3122 47.6909 40.9468 47.5084 40.6811Z" fill="black"/>
<path d="M57.0836 49.1947L56.7294 48.6744C56.5469 48.4087 56.1926 48.3423 55.9243 48.5305C55.6666 48.7187 55.6022 49.084 55.7847 49.3608L56.139 49.8811C56.2463 50.0472 56.4288 50.1358 56.6113 50.1358C56.7294 50.1358 56.8367 50.1025 56.9441 50.025C57.2017 49.8368 57.2661 49.4604 57.0836 49.1947Z" fill="black"/>
<path d="M58.4362 46.7148C58.1786 46.903 58.1142 47.2683 58.2967 47.5451L58.6509 48.0654C58.7583 48.2315 58.9407 48.3201 59.1232 48.3201C59.2413 48.3201 59.3487 48.2869 59.456 48.2094C59.7136 48.0212 59.778 47.6558 59.5956 47.3901L59.2413 46.8698C59.0588 46.593 58.6939 46.5266 58.4362 46.7148Z" fill="black"/>
<path opacity="0.85" d="M29.7857 43.3235C25.0788 44.3904 21.9408 44.1984 19.5927 42.726C17.2552 41.2429 15.7289 38.4901 14.6723 33.7848C13.6156 29.0795 13.797 25.9426 15.27 23.5953C16.7536 21.2586 19.518 19.7435 24.2143 18.6765C28.9105 17.6096 32.0592 17.8016 34.4073 19.274C36.7448 20.7571 38.2711 23.5099 39.3277 28.2152C40.3844 32.9205 40.2029 36.0574 38.73 38.4047C37.2464 40.7521 34.4927 42.2672 29.7857 43.3235Z" fill="#DB1E46"/>
<mask id="path-47-outside-1_1_95" maskUnits="userSpaceOnUse" x="10" y="14" width="28" height="28" fill="black">
<rect fill="white" x="10" y="14" width="28" height="28"/>
<path fill-rule="evenodd" clip-rule="evenodd" d="M16.5956 39.726C18.9434 41.1984 22.0809 41.3904 26.7872 40.3235C31.4935 39.2672 34.2468 37.7521 35.7302 35.4047C37.2029 33.0574 37.3843 29.9205 36.3278 25.2152C35.2713 20.5099 33.7452 17.7571 31.4081 16.274C29.0603 14.8016 25.9121 14.6096 21.2165 15.6765C16.5209 16.7435 13.7569 18.2586 12.2842 20.5953C10.8008 22.9426 10.6087 26.0795 11.6759 30.7848C12.7431 35.4901 14.2585 38.2429 16.5956 39.726ZM13.4474 30.39C11.6118 22.2917 13.5221 19.2722 21.622 17.4477C29.7113 15.6125 32.7421 17.5331 34.567 25.6207C36.3919 33.7083 34.4816 36.7385 26.3923 38.563C18.3031 40.3875 15.283 38.4883 13.4474 30.39ZM23.0414 31.8602C23.2556 31.9882 23.502 32.0309 23.7269 31.9775C23.9518 31.9242 24.1553 31.7855 24.2945 31.5827L28.8572 24.3907C29.125 23.9639 29.0072 23.409 28.5788 23.1422C28.1503 22.8755 27.5934 22.9928 27.3256 23.4197L23.2449 29.8541L20.3959 28.0614C19.9675 27.7946 19.4105 27.912 19.1428 28.3388C18.875 28.7657 18.9928 29.3205 19.4212 29.5873L23.0414 31.8602Z"/>
</mask>
<path fill-rule="evenodd" clip-rule="evenodd" d="M16.5956 39.726C18.9434 41.1984 22.0809 41.3904 26.7872 40.3235C31.4935 39.2672 34.2468 37.7521 35.7302 35.4047C37.2029 33.0574 37.3843 29.9205 36.3278 25.2152C35.2713 20.5099 33.7452 17.7571 31.4081 16.274C29.0603 14.8016 25.9121 14.6096 21.2165 15.6765C16.5209 16.7435 13.7569 18.2586 12.2842 20.5953C10.8008 22.9426 10.6087 26.0795 11.6759 30.7848C12.7431 35.4901 14.2585 38.2429 16.5956 39.726ZM13.4474 30.39C11.6118 22.2917 13.5221 19.2722 21.622 17.4477C29.7113 15.6125 32.7421 17.5331 34.567 25.6207C36.3919 33.7083 34.4816 36.7385 26.3923 38.563C18.3031 40.3875 15.283 38.4883 13.4474 30.39ZM23.0414 31.8602C23.2556 31.9882 23.502 32.0309 23.7269 31.9775C23.9518 31.9242 24.1553 31.7855 24.2945 31.5827L28.8572 24.3907C29.125 23.9639 29.0072 23.409 28.5788 23.1422C28.1503 22.8755 27.5934 22.9928 27.3256 23.4197L23.2449 29.8541L20.3959 28.0614C19.9675 27.7946 19.4105 27.912 19.1428 28.3388C18.875 28.7657 18.9928 29.3205 19.4212 29.5873L23.0414 31.8602Z" fill="white"/>
<path d="M26.7872 40.3235L26.5682 39.3477L26.5661 39.3482L26.7872 40.3235ZM16.5956 39.726L16.0598 40.5703L16.0643 40.5731L16.5956 39.726ZM35.7302 35.4047L36.5756 35.939L36.5773 35.9362L35.7302 35.4047ZM36.3278 25.2152L35.3521 25.4343L36.3278 25.2152ZM31.4081 16.274L31.9439 15.4297L31.9394 15.4269L31.4081 16.274ZM21.2165 15.6765L20.9949 14.7014L21.2165 15.6765ZM12.2842 20.5953L13.1295 21.1295L13.1302 21.1285L12.2842 20.5953ZM11.6759 30.7848L12.6511 30.5636L11.6759 30.7848ZM21.622 17.4477L21.8418 18.4233L21.8433 18.4229L21.622 17.4477ZM13.4474 30.39L12.4721 30.6111L13.4474 30.39ZM34.567 25.6207L35.5425 25.4006L34.567 25.6207ZM26.3923 38.563L26.6124 39.5385L26.3923 38.563ZM23.7269 31.9775L23.9577 32.9505L23.9577 32.9505L23.7269 31.9775ZM23.0414 31.8602L22.5097 32.7071L22.5189 32.7129L22.5283 32.7185L23.0414 31.8602ZM24.2945 31.5827L25.1189 32.1488L25.1292 32.1338L25.1389 32.1184L24.2945 31.5827ZM28.8572 24.3907L29.7017 24.9264L29.7043 24.9221L28.8572 24.3907ZM28.5788 23.1422L29.1073 22.2934V22.2934L28.5788 23.1422ZM27.3256 23.4197L28.1701 23.9553L28.1727 23.9511L27.3256 23.4197ZM23.2449 29.8541L22.7123 30.7005L23.5557 31.2311L24.0894 30.3897L23.2449 29.8541ZM20.3959 28.0614L20.9285 27.215L20.9245 27.2125L20.3959 28.0614ZM19.1428 28.3388L19.9899 28.8703L19.9899 28.8703L19.1428 28.3388ZM19.4212 29.5873L19.953 28.7404L19.9498 28.7384L19.4212 29.5873ZM26.5661 39.3482C21.9437 40.3962 19.1349 40.1381 17.1269 38.8788L16.0643 40.5731C18.7519 42.2586 22.2182 42.3847 27.0083 41.2987L26.5661 39.3482ZM34.8849 34.8705C33.6174 36.8762 31.1925 38.3098 26.5682 39.3477L27.0062 41.2992C31.7945 40.2245 34.8763 38.6279 36.5756 35.939L34.8849 34.8705ZM35.3521 25.4343C36.3907 30.0597 36.142 32.8667 34.8831 34.8733L36.5773 35.9362C38.2638 33.2481 38.378 29.7813 37.3035 24.9961L35.3521 25.4343ZM30.8723 17.1184C32.8704 18.3863 34.3146 20.8135 35.3521 25.4343L37.3035 24.9961C36.228 20.2063 34.6201 17.1279 31.9439 15.4297L30.8723 17.1184ZM21.4381 16.6517C26.0493 15.6039 28.8688 15.8619 30.8768 17.1212L31.9394 15.4269C29.2519 13.7414 25.7749 13.6153 20.9949 14.7014L21.4381 16.6517ZM13.1302 21.1285C14.3866 19.1349 16.8206 17.7009 21.4381 16.6517L20.9949 14.7014C16.2212 15.7861 13.1272 17.3823 11.4382 20.0621L13.1302 21.1285ZM12.6511 30.5636C11.6029 25.9418 11.8616 23.1358 13.1295 21.1295L11.4388 20.061C9.73995 22.7494 9.61453 26.2171 10.7006 31.006L12.6511 30.5636ZM17.1314 38.8816C15.1341 37.6142 13.7 35.1883 12.6511 30.5636L10.7006 31.006C11.7861 35.7919 13.3828 38.8716 16.0598 40.5703L17.1314 38.8816ZM21.4023 16.4721C17.3186 17.392 14.454 18.673 12.9635 21.0321C11.4729 23.3913 11.5467 26.528 12.4721 30.6111L14.4227 30.169C13.5126 26.1537 13.6237 23.7315 14.6543 22.1003C15.6851 20.4689 17.8255 19.3279 21.8418 18.4233L21.4023 16.4721ZM35.5425 25.4006C34.6222 21.322 33.3379 18.4589 30.9778 16.9677C28.6172 15.4764 25.4806 15.5469 21.4008 16.4725L21.8433 18.4229C25.8527 17.5133 28.2761 17.6266 29.9095 18.6585C31.5433 19.6908 32.6869 21.8317 33.5915 25.8408L35.5425 25.4006ZM26.6124 39.5385C30.6919 38.6183 33.553 37.3343 35.043 34.9744C36.5329 32.6146 36.4627 29.479 35.5425 25.4006L33.5915 25.8408C34.4961 29.85 34.3832 32.2732 33.3519 33.9066C32.3207 35.5398 30.1821 36.6831 26.1723 37.5875L26.6124 39.5385ZM12.4721 30.6111C13.3976 34.6941 14.682 37.5549 17.0412 39.0433C19.4002 40.5316 22.5341 40.4583 26.6124 39.5385L26.1723 37.5875C22.1613 38.4921 19.7405 38.3815 18.1083 37.3518C16.4762 36.3221 15.3328 34.1842 14.4227 30.169L12.4721 30.6111ZM23.4961 31.0045C23.522 30.9984 23.5406 30.9998 23.5494 31.0013C23.5581 31.0028 23.5591 31.0046 23.5545 31.0018L22.5283 32.7185C22.9444 32.9672 23.4558 33.0696 23.9577 32.9505L23.4961 31.0045ZM23.4702 31.0166C23.468 31.0198 23.4736 31.0099 23.4961 31.0045L23.9577 32.9505C24.43 32.8385 24.8426 32.5511 25.1189 32.1488L23.4702 31.0166ZM28.0128 23.855L23.4501 31.047L25.1389 32.1184L29.7016 24.9264L28.0128 23.855ZM28.0502 23.9911C28.0284 23.9775 28.0088 23.9503 28.0024 23.9211C27.9963 23.8936 28.003 23.8707 28.0101 23.8593L29.7043 24.9221C30.2557 24.0432 30.0224 22.8631 29.1073 22.2934L28.0502 23.9911ZM28.1727 23.9511C28.167 23.9603 28.157 23.9715 28.1434 23.9809C28.1304 23.9899 28.1171 23.9953 28.1051 23.9979C28.0805 24.0032 28.0602 23.9974 28.0502 23.9911L29.1073 22.2934C28.2306 21.7474 27.0511 21.9756 26.4785 22.8882L28.1727 23.9511ZM24.0894 30.3897L28.1701 23.9552L26.4811 22.8841L22.4004 29.3185L24.0894 30.3897ZM19.8633 28.9078L22.7123 30.7005L23.7775 29.0077L20.9285 27.215L19.8633 28.9078ZM19.9899 28.8703C19.9841 28.8794 19.9742 28.8906 19.9605 28.9001C19.9475 28.9091 19.9342 28.9144 19.9222 28.9171C19.8976 28.9224 19.8774 28.9166 19.8673 28.9103L20.9245 27.2125C20.0477 26.6666 18.8682 26.8948 18.2957 27.8074L19.9899 28.8703ZM19.9498 28.7384C19.9716 28.752 19.9912 28.7793 19.9976 28.8085C20.0037 28.8359 19.997 28.8588 19.9899 28.8703L18.2957 27.8074C17.7443 28.6863 17.9776 29.8664 18.8927 30.4362L19.9498 28.7384ZM23.5731 31.0132L19.953 28.7404L18.8895 30.4342L22.5097 32.7071L23.5731 31.0132Z" fill="#DB1E46" mask="url(#path-47-outside-1_1_95)"/>
</svg>
