<svg width="28" height="28" viewBox="0 0 28 28" fill="none" xmlns="http://www.w3.org/2000/svg">
<path fill-rule="evenodd" clip-rule="evenodd" d="M15.6925 5.94444C15.7232 5.67001 15.9706 5.47244 16.245 5.50315C19.5326 5.87102 22.1256 8.48359 22.4943 11.7894C22.525 12.0639 22.3273 12.3112 22.0529 12.3418C21.7784 12.3724 21.5311 12.1747 21.5005 11.9003C21.183 9.05378 18.952 6.81229 16.1338 6.49694C15.8593 6.46624 15.6618 6.21887 15.6925 5.94444ZM6.85732 8.30005C6.85686 8.30076 6.85664 8.30109 6.85668 8.30102C6.84821 8.31606 6.83896 8.33065 6.82898 8.34474C6.6218 8.63698 6.28963 9.34532 6.6827 10.6848C7.08344 12.0504 8.23968 14.0701 11.0571 16.9093C13.8752 19.7488 15.8793 20.9132 17.2329 21.3164C18.5592 21.7114 19.259 21.3774 19.5474 21.1695C19.5619 21.159 19.5769 21.1494 19.5924 21.1406C19.5922 21.1407 19.5929 21.1403 19.5943 21.1393C19.6139 21.1264 19.7827 21.0152 20.0106 20.8199C20.2504 20.6145 20.5332 20.3349 20.7607 20.0086C20.9895 19.6805 21.1437 19.3321 21.1691 18.9828C21.1933 18.6492 21.104 18.269 20.7622 17.8483C19.7354 16.5925 19.072 16.1421 18.6261 16.0086C18.227 15.8893 17.9332 16.0003 17.4913 16.2158C17.462 16.2301 17.4319 16.245 17.4009 16.2603C16.9849 16.4659 16.4226 16.7437 15.6969 16.6522C14.9246 16.5549 14.0668 16.0612 12.9778 14.9642L12.9778 14.9641C11.8885 13.8663 11.4002 13.0032 11.3039 12.2283C11.2135 11.5005 11.4879 10.9365 11.692 10.5168C11.7071 10.4857 11.7219 10.4553 11.7361 10.4258C11.9498 9.98078 12.0618 9.68123 11.942 9.27475C11.8088 8.82295 11.3605 8.15393 10.1146 7.11994C9.69767 6.77593 9.32272 6.6873 8.99518 6.71147C8.65131 6.73685 8.30709 6.89118 7.98158 7.12166C7.65799 7.35077 7.38042 7.63575 7.17633 7.8776C6.97828 8.1123 6.86667 8.28553 6.85732 8.30005ZM8.92159 5.71418C9.52505 5.66965 10.1508 5.85313 10.7517 6.34918L10.7527 6.34999C12.0331 7.41257 12.68 8.24191 12.9012 8.99197C13.1357 9.7874 12.8611 10.3932 12.6375 10.8587C12.63 10.8743 12.6226 10.8898 12.6152 10.9051C12.3953 11.3623 12.2433 11.6785 12.2963 12.1051C12.3519 12.5529 12.6552 13.2193 13.6876 14.2598C14.7208 15.3005 15.381 15.6045 15.822 15.6601C16.2421 15.7131 16.5532 15.5611 17.0085 15.3388C17.0231 15.3316 17.0379 15.3244 17.0529 15.3171C17.5144 15.0919 18.119 14.8132 18.9126 15.0506C19.6593 15.2739 20.4829 15.9267 21.5369 17.2159L21.5378 17.217C22.0296 17.8221 22.2104 18.4506 22.1665 19.0553C22.1237 19.6444 21.8714 20.1641 21.581 20.5805C21.0449 21.3495 20.3025 21.8746 20.1172 21.9914C19.5625 22.3847 18.5429 22.75 16.9474 22.2748C15.365 21.8034 13.2201 20.5083 10.3473 17.6137L10.3473 17.6137C7.47465 14.7188 6.19041 12.5586 5.72316 10.9663C5.25238 9.36208 5.61405 8.33838 6.00284 7.7811C6.11698 7.59732 6.63853 6.8473 7.40372 6.30552C7.81716 6.01279 8.33433 5.75752 8.92159 5.71418ZM15.6987 8.84882C15.7517 8.57782 16.0144 8.40113 16.2854 8.45417C17.9484 8.77966 19.2446 10.0892 19.5674 11.7591C19.6198 12.0302 19.4425 12.2925 19.1714 12.3449C18.9003 12.3973 18.638 12.22 18.5856 11.9489C18.3393 10.6748 17.3521 9.68191 16.0933 9.43555C15.8223 9.38251 15.6456 9.11982 15.6987 8.84882Z" fill="white"/>
</svg>
