<svg width="72" height="72" viewBox="0 0 72 72" fill="none" xmlns="http://www.w3.org/2000/svg">
<path d="M30.2685 13.2346C28.8332 15.4549 27.9799 17.4359 27.4756 19.015L30.6176 21.9244L33.7499 19.0055C33.2456 17.4264 32.3922 15.4549 30.957 13.2346C30.7921 12.9953 30.4236 12.9953 30.2685 13.2346Z" fill="#AFDC82"/>
<path d="M37.3671 16.3257C34.8263 17.79 32.7414 19.3786 31.1025 20.8238C30.8019 21.0917 30.3655 21.0917 30.0649 20.8238C28.426 19.3691 26.341 17.79 23.8002 16.3257C23.5093 16.163 23.1796 16.4693 23.3251 16.766L26.5059 23.1111L30.5788 26.5277L34.6518 23.1111L37.8326 16.766C37.9877 16.4693 37.658 16.1535 37.3671 16.3257Z" fill="#96CD82"/>
<path d="M40.2086 20.1347C36.475 21.6947 33.5464 23.714 31.5099 25.3888C31.219 25.6281 30.802 25.6281 30.511 25.3888C28.4746 23.714 25.5459 21.6947 21.8124 20.1347C21.4826 20.0007 21.182 20.3835 21.4051 20.6515C22.53 21.9914 24.5568 24.5275 26.5641 27.6857L30.9959 31.4468L35.4277 27.6857C37.4351 24.5371 39.4716 21.9914 40.5868 20.6515C40.8389 20.374 40.5383 19.9912 40.2086 20.1347Z" fill="#7DBE81"/>
<path d="M39.1806 25.5037C35.8932 26.8914 33.3136 28.6619 31.5002 30.1453C31.2093 30.3845 30.7923 30.3845 30.5013 30.1453C28.6879 28.6619 26.1084 26.8914 22.8209 25.5037C22.4912 25.3601 22.1906 25.7525 22.4136 26.0205C23.5094 27.322 25.4392 29.7242 27.2333 32.5187L30.9862 34.8443L31.0056 34.8347L31.025 34.8443L34.778 32.5187C36.572 29.7242 38.5018 27.322 39.5976 26.0205C39.811 25.7525 39.5007 25.3697 39.1806 25.5037Z" fill="#96CD82"/>
<path d="M24.6343 31.5234C25.4585 32.49 26.6126 33.983 27.495 35.7343L31.3837 34.9687C31.3837 34.9687 28.4163 32.624 25.0512 31.0162C24.7215 30.8535 24.4015 31.2459 24.6343 31.5234Z" fill="#7DBE81"/>
<path d="M38.4338 30.3654C38.4338 30.3654 36.0579 32.6623 34.4966 35.7344L30.6079 34.9687C30.6079 34.9687 34.4966 31.8967 38.4338 30.3654Z" fill="#7DBE81"/>
<path d="M41.4983 47.2379C41.4983 54.4443 39.1999 60.2822 30.6176 60.2822C22.0353 60.2822 19.7273 54.4443 19.7273 47.2379C19.7273 40.0314 22.0256 34.2031 30.6079 34.2031C39.1902 34.2031 41.4983 40.041 41.4983 47.2379Z" fill="#FFA71C"/>
<path d="M34.4966 57.2101C25.9143 57.2101 23.616 51.3722 23.616 44.1658C23.616 40.6056 24.1785 37.3804 25.7883 35.0261C21.1334 36.8732 19.7273 41.6392 19.7273 47.2378C19.7273 54.4443 22.0256 60.2822 30.6079 60.2822C34.9524 60.2822 37.6774 58.7892 39.3163 56.3775C37.9877 56.9134 36.407 57.2101 34.4966 57.2101Z" fill="#D98809"/>
<path d="M39.8691 37.609C38.8896 36.2022 37.5902 35.1494 35.9804 34.4604C37.5999 32.2018 38.9284 30.8811 38.9478 30.8619C39.1903 30.6227 39.2291 30.2494 39.0448 29.9623C38.8605 29.6752 38.5017 29.5604 38.1817 29.6752C37.8617 29.79 37.5514 29.9145 37.2411 30.0484C39.2969 27.1869 40.9746 25.5121 40.994 25.4834C41.2364 25.2441 41.2752 24.8709 41.091 24.5838C40.9067 24.2967 40.5479 24.1818 40.2279 24.2967C39.3454 24.6221 38.5211 24.9762 37.7356 25.3398C40.063 22.0572 41.9928 20.1336 42.0219 20.1145C42.2644 19.8752 42.3032 19.502 42.1189 19.2148C41.9347 18.9277 41.5759 18.8129 41.2558 18.9277C39.4812 19.5977 37.9102 20.3346 36.5137 21.0906L39.0351 16.1045C39.1806 15.827 39.1224 15.4824 38.8896 15.2623C38.6569 15.0422 38.3175 14.9943 38.0363 15.1475C36.6786 15.8844 35.3791 16.6691 34.1572 17.5113C33.459 15.76 32.4602 14.0086 31.1898 12.2859C31.054 12.1041 30.831 11.9893 30.5982 11.9893C30.3655 11.9893 30.1522 12.0945 30.0067 12.2859C28.7363 14.0086 27.7472 15.76 27.049 17.5113C25.9143 16.7266 24.6246 15.9322 23.1893 15.157C22.9081 15.0039 22.5687 15.0518 22.336 15.2719C22.1032 15.492 22.045 15.827 22.1905 16.1141L24.4306 20.5451C23.3057 19.9805 22.0838 19.4445 20.7553 18.9469C20.4352 18.832 20.0764 18.9469 19.8922 19.234C19.7079 19.5211 19.7467 19.8943 19.9891 20.1336C20.0085 20.1527 21.948 22.0859 24.2755 25.3686C23.49 25.0049 22.6657 24.6508 21.7832 24.3254C21.4632 24.2105 21.1044 24.3254 20.9201 24.6125C20.7359 24.8996 20.7746 25.2729 21.0171 25.5121C21.0365 25.5312 22.7239 27.2061 24.77 30.0771C24.4597 29.9527 24.1397 29.8283 23.8294 29.7039C23.5094 29.5891 23.1505 29.7039 22.9663 29.991C22.782 30.2781 22.8208 30.6514 23.0633 30.8906C23.073 30.9002 24.3045 32.1252 25.8562 34.2498C23.9748 34.9197 22.462 36.0586 21.3662 37.6377C19.7661 39.8771 19 43.0258 19 47.2367C19 51.4477 19.7661 54.5963 21.3468 56.8645C23.2669 59.6111 26.3798 60.9988 30.6079 60.9988C34.8361 60.9988 37.9587 59.6111 39.8691 56.8645C41.4498 54.5963 42.2159 51.4477 42.2159 47.2367C42.2159 43.0258 41.4498 39.8771 39.8691 37.609ZM20.8037 42.9588C20.891 43.0258 20.9783 43.1023 21.0656 43.1789C21.5601 43.6 22.1808 44.1168 23.3542 44.1168C24.5276 44.1168 25.1482 43.6 25.6428 43.1789C26.0695 42.8248 26.341 42.5855 26.9811 42.5855C27.6211 42.5855 27.9023 42.8248 28.3193 43.1789C28.8139 43.6 29.4345 44.1168 30.6079 44.1168C31.7813 44.1168 32.402 43.6 32.8966 43.1789C33.3233 42.8248 33.6045 42.5855 34.2348 42.5855C34.8749 42.5855 35.1561 42.8248 35.5731 43.1789C36.0677 43.6 36.6883 44.1168 37.8617 44.1168C39.0351 44.1168 39.6557 43.6 40.1503 43.1789C40.2473 43.1023 40.3346 43.0258 40.4218 42.9588C40.5867 43.8393 40.6837 44.7963 40.7322 45.8299C40.0243 45.9926 39.5782 46.3658 39.2 46.6912C38.7733 47.0453 38.492 47.2846 37.8617 47.2846C37.2217 47.2846 36.9404 47.0453 36.5234 46.6912C36.0289 46.2701 35.4082 45.7533 34.2348 45.7533C33.0614 45.7533 32.4408 46.2701 31.9462 46.6912C31.5195 47.0453 31.2383 47.2846 30.6079 47.2846C29.9679 47.2846 29.6867 47.0453 29.2697 46.6912C28.7751 46.2701 28.1545 45.7533 26.9811 45.7533C25.8077 45.7533 25.187 46.2701 24.6925 46.6912C24.2658 47.0453 23.9942 47.2846 23.3542 47.2846C22.7142 47.2846 22.4426 47.0453 22.0159 46.6912C21.6377 46.3754 21.1916 45.9926 20.4934 45.8299C20.5322 44.8059 20.6389 43.8488 20.8037 42.9588ZM33.4396 33.7139C34.1863 33.2066 34.9718 32.7473 35.7767 32.3166C35.3985 32.8047 34.9815 33.3502 34.5548 33.9627C34.196 33.867 33.8275 33.7809 33.4396 33.7139ZM34.6421 31.3021C33.459 31.9529 32.3438 32.6803 31.2965 33.4938C31.1025 33.4842 30.8989 33.4842 30.7049 33.4842C30.3849 33.2354 30.0455 32.9865 29.7061 32.7568C30.1328 32.2975 30.9765 31.4457 32.2274 30.4408C33.4881 29.4359 35.3694 28.1248 37.8132 26.9285C36.9016 28.0291 35.7767 29.5221 34.6421 31.3021ZM35.03 26.7658C33.3814 27.7229 32.0335 28.7086 30.9861 29.5699C30.5207 29.1871 29.9776 28.766 29.3764 28.3354C29.7352 27.9238 30.734 26.852 32.3632 25.56C33.8081 24.4115 35.9707 22.8994 38.8121 21.5404C37.7744 22.8037 36.4071 24.6125 35.03 26.7658ZM34.1863 22.4688C33.8954 22.6602 33.6142 22.842 33.3426 23.0334C32.8772 22.4975 32.3244 21.9041 31.6747 21.282C33.1681 19.9709 34.8264 18.7459 36.6398 17.6262L34.1863 22.4688ZM30.6079 13.9703C31.6068 15.4346 32.3826 16.918 32.9354 18.3918C32.1208 19.0043 31.345 19.6359 30.6079 20.2867C29.9194 19.6742 29.1436 19.033 28.2708 18.3918C28.8333 16.918 29.6091 15.4346 30.6079 13.9703ZM24.5761 17.6166C28.2127 19.8561 30.637 22.1434 32.1596 23.8756C31.7329 24.1914 31.345 24.5072 30.9861 24.8039C29.8806 23.8947 28.4454 22.8229 26.6804 21.7701L24.5761 17.6166ZM23.1699 21.5309C26.0792 22.9186 28.3193 24.4881 29.8903 25.7705C28.9497 26.6318 28.3775 27.2826 28.1739 27.5219C27.7957 27.273 27.3884 27.0242 26.9617 26.7754C25.5846 24.5934 24.2367 22.8133 23.1699 21.5309ZM24.1882 26.9189C26.632 28.1152 28.5327 29.4359 29.8806 30.527C29.1921 31.1586 28.7266 31.6562 28.4648 31.9529C28.0963 31.7232 27.7278 31.5127 27.3496 31.3021C26.2053 29.5125 25.0997 28.0291 24.1882 26.9189ZM26.215 32.3262C26.9714 32.7186 27.7084 33.1588 28.4066 33.6182C28.0284 33.666 27.6696 33.733 27.3205 33.8096C26.9326 33.2545 26.5641 32.7664 26.215 32.3262ZM30.6079 34.9197C34.1281 34.9197 36.6883 35.9246 38.3563 38.0205C38.2108 38.0588 38.0557 38.0875 37.8617 38.0875C37.6484 38.0875 37.4641 38.0588 37.2992 38.0014C36.921 37.877 36.504 38.0779 36.378 38.4512C36.2519 38.8244 36.4556 39.2359 36.8338 39.3604C37.1538 39.4656 37.4835 39.523 37.8617 39.523C38.4145 39.523 38.8412 39.4082 39.1709 39.2551C39.5297 39.9154 39.8303 40.6619 40.0727 41.485C39.7139 41.6668 39.4424 41.8965 39.2 42.0975C38.7733 42.4516 38.492 42.6908 37.8617 42.6908C37.2217 42.6908 36.9404 42.4516 36.5234 42.0975C36.0289 41.6764 35.4082 41.1596 34.2348 41.1596C33.0614 41.1596 32.4408 41.6764 31.9462 42.0975C31.5195 42.4516 31.2383 42.6908 30.6079 42.6908C29.9679 42.6908 29.6964 42.4516 29.2697 42.0975C28.7751 41.6764 28.1545 41.1596 26.9811 41.1596C25.8077 41.1596 25.187 41.6764 24.6925 42.0975C24.2658 42.4516 23.9942 42.6908 23.3542 42.6908C22.7142 42.6908 22.4329 42.4516 22.0159 42.0975C21.7735 41.8869 21.502 41.6668 21.1529 41.485C21.3856 40.6619 21.6862 39.925 22.0547 39.2551C22.3941 39.4082 22.8111 39.523 23.3639 39.523C24.5373 39.523 25.1579 39.0062 25.6525 38.5852C26.0792 38.2311 26.3507 37.9918 26.9908 37.9918C27.6308 37.9918 27.9023 38.2311 28.329 38.5852C28.8236 39.0062 29.4442 39.523 30.6176 39.523C31.791 39.523 32.4117 39.0062 32.9063 38.5852C33.333 38.2311 33.6045 37.9918 34.2445 37.9918C34.6421 37.9918 34.9718 37.6664 34.9718 37.274C34.9718 36.8816 34.6421 36.5563 34.2445 36.5563C33.0711 36.5563 32.4505 37.073 31.9559 37.4941C31.5292 37.8482 31.2577 38.0875 30.6176 38.0875C29.9776 38.0875 29.7061 37.8482 29.2794 37.4941C28.7848 37.073 28.1642 36.5563 26.9908 36.5563C25.8174 36.5563 25.1967 37.073 24.7021 37.4941C24.2755 37.8482 24.0039 38.0875 23.3639 38.0875C23.1699 38.0875 23.0051 38.0684 22.8693 38.0205C24.5276 35.9246 27.0877 34.9197 30.6079 34.9197ZM24.2561 57.8119C24.8767 57.6301 25.2937 57.2855 25.6428 56.9889C26.0695 56.6348 26.341 56.3955 26.9811 56.3955C27.6211 56.3955 27.9023 56.6348 28.3193 56.9889C28.8139 57.41 29.4345 57.9268 30.6079 57.9268C31.7813 57.9268 32.402 57.41 32.8966 56.9889C33.3233 56.6348 33.6045 56.3955 34.2348 56.3955C34.8749 56.3955 35.1561 56.6348 35.5731 56.9889C35.9222 57.2855 36.3392 57.6301 36.9598 57.8119C35.3694 58.9891 33.2651 59.5633 30.6079 59.5633C27.9605 59.5633 25.8465 58.9891 24.2561 57.8119ZM38.3951 56.4242C38.2399 56.4721 38.0653 56.5008 37.8617 56.5008C37.2217 56.5008 36.9404 56.2615 36.5234 55.9074C36.0289 55.4863 35.4082 54.9695 34.2348 54.9695C33.0614 54.9695 32.4408 55.4863 31.9462 55.9074C31.5195 56.2615 31.2383 56.5008 30.6079 56.5008C29.9679 56.5008 29.6867 56.2615 29.2697 55.9074C28.7751 55.4863 28.1545 54.9695 26.9811 54.9695C25.8077 54.9695 25.187 55.4863 24.6925 55.9074C24.2658 56.2615 23.9942 56.5008 23.3542 56.5008C23.1602 56.5008 22.9954 56.4816 22.8402 56.4338H22.8305C21.9771 55.3523 21.3565 53.9838 20.9686 52.309C20.9977 52.3377 21.0365 52.3664 21.0656 52.3951C21.5601 52.8162 22.1808 53.333 23.3542 53.333C23.5287 53.333 23.6936 53.3234 23.8585 53.2947C24.2561 53.2373 24.5276 52.8736 24.4694 52.4813C24.4112 52.0889 24.0427 51.8209 23.6451 51.8783C23.5578 51.8879 23.4609 51.8975 23.3542 51.8975C22.7142 51.8975 22.4329 51.6582 22.0159 51.3041C21.6765 51.017 21.2692 50.6725 20.6486 50.4906C20.5225 49.524 20.4643 48.4809 20.4643 47.3516C20.6777 47.4568 20.8522 47.61 21.0753 47.7918C21.5698 48.2129 22.1905 48.7297 23.3639 48.7297C24.5373 48.7297 25.1579 48.2129 25.6525 47.7918C26.0792 47.4377 26.3507 47.1984 26.9908 47.1984C27.6308 47.1984 27.9023 47.4377 28.329 47.7918C28.8236 48.2129 29.4442 48.7297 30.6176 48.7297C31.791 48.7297 32.4117 48.2129 32.9063 47.7918C33.333 47.4377 33.6045 47.1984 34.2445 47.1984C34.8846 47.1984 35.1658 47.4377 35.5828 47.7918C36.0774 48.2129 36.698 48.7297 37.8714 48.7297C39.0448 48.7297 39.6654 48.2129 40.16 47.7918C40.3831 47.61 40.5576 47.4568 40.771 47.3516C40.771 48.4809 40.7031 49.524 40.5867 50.4906C39.9661 50.6725 39.5491 51.017 39.2097 51.3041C38.783 51.6582 38.5017 51.8975 37.8714 51.8975C37.2314 51.8975 36.9501 51.6582 36.5331 51.3041C36.0386 50.883 35.4179 50.3662 34.2445 50.3662C33.0711 50.3662 32.4505 50.883 31.9559 51.3041C31.5292 51.6582 31.2577 51.8975 30.6176 51.8975C29.9776 51.8975 29.7061 51.6582 29.2794 51.3041C28.7848 50.883 28.1642 50.3662 26.9908 50.3662C26.6998 50.3662 26.4283 50.3949 26.1665 50.4619C25.7786 50.5576 25.5458 50.95 25.6428 51.3328C25.7398 51.7156 26.1374 51.9453 26.5253 51.8496C26.661 51.8113 26.8162 51.8018 26.9811 51.8018C27.6211 51.8018 27.8926 52.041 28.3193 52.3951C28.8139 52.8162 29.4345 53.333 30.6079 53.333C31.7813 53.333 32.402 52.8162 32.8966 52.3951C33.3233 52.041 33.5948 51.8018 34.2348 51.8018C34.8749 51.8018 35.1561 52.041 35.5731 52.3951C36.0677 52.8162 36.6883 53.333 37.8617 53.333C39.0351 53.333 39.6557 52.8162 40.1503 52.3951C40.1891 52.3664 40.2182 52.3377 40.257 52.309C39.8691 53.9646 39.2484 55.3428 38.3951 56.4242Z" fill="black"/>
<path opacity="0.9" d="M53.9774 32.6167C53.8805 32.1925 53.4346 31.9343 52.9984 32.0265L52.2424 32.1925C51.9128 30.846 51.4088 28.9923 50.8757 27.9225C50.8757 27.9225 50.8757 27.9132 50.866 27.9132C49.286 24.5562 46.8337 23.0161 43.0534 23.0069C42.9274 22.9976 42.7917 22.9976 42.6463 23.0069C42.5785 23.0069 42.5106 23.0161 42.4428 23.0161C42.3361 23.0161 42.2295 23.0253 42.1229 23.0345C42.0744 23.0345 42.0357 23.0437 41.9872 23.053C38.7982 23.3296 35.0664 24.4825 34.4557 24.6669C34.4267 24.6761 34.3976 24.6854 34.3685 24.6946C30.3944 26.2255 28.6206 28.6787 28.6884 32.6075C28.6884 32.6259 28.6884 32.6444 28.6884 32.6628C28.6981 34.0739 29.0567 35.8446 29.3669 37.1173L28.6399 37.2741C28.1941 37.3663 27.9227 37.7905 28.0196 38.2056C28.1165 38.6298 28.5624 38.888 28.9986 38.7958L29.7643 38.6298C29.774 38.6482 29.774 38.6667 29.7837 38.6759C29.8031 38.7312 29.8128 38.7681 29.8128 38.7681C30.0164 39.4322 30.2393 40.0501 30.4719 40.6034C30.4816 40.6219 30.4816 40.6311 30.4913 40.6495C32.0713 44.3385 34.6011 46.0078 38.614 45.9986C38.614 45.9986 42.5106 46.1093 47.1148 44.3293C47.1342 44.3201 47.1632 44.3201 47.1826 44.3109C47.4153 44.2186 47.6479 44.1264 47.8708 44.025C47.8805 44.025 47.8902 44.0157 47.8999 44.0157C47.9096 44.0065 47.929 44.0065 47.9387 43.9973C48.0841 43.9327 48.2198 43.8682 48.3361 43.8036C51.6802 42.1528 53.076 39.6443 52.8336 35.78C52.8336 35.7616 52.8336 35.7524 52.8336 35.7339C52.7949 35.1437 52.7173 34.5073 52.601 33.8341C52.601 33.8341 52.601 33.8249 52.5913 33.8064C52.5913 33.7788 52.5816 33.7511 52.5816 33.7234L53.3474 33.5574C53.8029 33.456 54.084 33.0317 53.9774 32.6167Z" fill="#DB1E46"/>
<mask id="path-11-outside-1_1_148" maskUnits="userSpaceOnUse" x="30" y="17.9976" width="28" height="27" fill="black">
<rect fill="white" x="30" y="17.9976" width="28" height="27"/>
<path fill-rule="evenodd" clip-rule="evenodd" d="M52.5776 25.2603C52.7328 25.6356 53.1304 25.8377 53.5183 25.7511C53.5571 25.7415 53.6056 25.7222 53.6541 25.703C54.0808 25.5394 54.2844 25.0583 54.1099 24.6445C52.4128 20.4874 49.6489 18.7553 45.1395 19.0247C44.6837 19.0536 44.3346 19.4385 44.3637 19.8908C44.3928 20.343 44.7807 20.6895 45.2365 20.6606C49.0283 20.4296 51.1521 21.7672 52.5776 25.2603ZM32.7264 30.4086C32.6876 30.4182 32.6391 30.4279 32.5906 30.4279C32.1349 30.4567 31.7469 30.1103 31.7179 29.658C31.4463 25.1834 33.1919 22.4408 37.3813 20.7568C37.7983 20.5836 38.2832 20.7857 38.4481 21.2091C38.6226 21.6229 38.419 22.104 37.9923 22.2676C34.472 23.6822 33.124 25.7896 33.3568 29.5522C33.3859 29.966 33.1046 30.322 32.7264 30.4086ZM32.7673 35.2982L31.9991 35.4703C31.553 35.5665 31.1166 35.297 31.0196 34.8544C30.9226 34.4117 31.1942 33.9787 31.6403 33.8825L54.3787 28.7896C54.411 28.7788 54.4442 28.7699 54.4784 28.7631C54.4992 28.759 54.52 28.7558 54.5408 28.7533L56.0009 28.4263C56.447 28.3301 56.8834 28.5995 56.9804 29.0422C57.0774 29.4848 56.8058 29.9178 56.3597 30.0141L55.597 30.1849C55.7255 30.9302 55.8097 31.6342 55.8458 32.2851V32.3332C56.1173 36.7886 54.3717 39.5407 50.1823 41.2248C50.1435 41.2536 50.1047 41.2632 50.0562 41.2729C49.6683 41.3595 49.2707 41.1574 49.1156 40.7821C48.941 40.3683 49.1446 39.8872 49.5616 39.714C53.0625 38.2994 54.4105 36.2016 54.2069 32.4775V32.4294C54.1722 31.8509 54.0977 31.2183 53.9871 30.5455L34.3758 34.9379C34.5611 35.5821 34.7612 36.1692 34.9763 36.6924C34.986 36.7116 34.9957 36.7309 34.9957 36.7501C36.4115 40.2336 38.545 41.5712 42.3368 41.3499C42.7926 41.321 43.1806 41.6674 43.1999 42.1197C43.229 42.5142 42.9575 42.8703 42.5696 42.9569L42.5489 42.9611C42.5096 42.9691 42.4752 42.9761 42.4338 42.9761C37.9438 43.2263 35.1799 41.5134 33.4925 37.4141L33.4886 37.4068L33.4849 37.4003C33.4783 37.389 33.4731 37.3801 33.4731 37.366C33.2172 36.7492 32.9833 36.0558 32.7673 35.2982Z"/>
</mask>
<path fill-rule="evenodd" clip-rule="evenodd" d="M52.5776 25.2603C52.7328 25.6356 53.1304 25.8377 53.5183 25.7511C53.5571 25.7415 53.6056 25.7222 53.6541 25.703C54.0808 25.5394 54.2844 25.0583 54.1099 24.6445C52.4128 20.4874 49.6489 18.7553 45.1395 19.0247C44.6837 19.0536 44.3346 19.4385 44.3637 19.8908C44.3928 20.343 44.7807 20.6895 45.2365 20.6606C49.0283 20.4296 51.1521 21.7672 52.5776 25.2603ZM32.7264 30.4086C32.6876 30.4182 32.6391 30.4279 32.5906 30.4279C32.1349 30.4567 31.7469 30.1103 31.7179 29.658C31.4463 25.1834 33.1919 22.4408 37.3813 20.7568C37.7983 20.5836 38.2832 20.7857 38.4481 21.2091C38.6226 21.6229 38.419 22.104 37.9923 22.2676C34.472 23.6822 33.124 25.7896 33.3568 29.5522C33.3859 29.966 33.1046 30.322 32.7264 30.4086ZM32.7673 35.2982L31.9991 35.4703C31.553 35.5665 31.1166 35.297 31.0196 34.8544C30.9226 34.4117 31.1942 33.9787 31.6403 33.8825L54.3787 28.7896C54.411 28.7788 54.4442 28.7699 54.4784 28.7631C54.4992 28.759 54.52 28.7558 54.5408 28.7533L56.0009 28.4263C56.447 28.3301 56.8834 28.5995 56.9804 29.0422C57.0774 29.4848 56.8058 29.9178 56.3597 30.0141L55.597 30.1849C55.7255 30.9302 55.8097 31.6342 55.8458 32.2851V32.3332C56.1173 36.7886 54.3717 39.5407 50.1823 41.2248C50.1435 41.2536 50.1047 41.2632 50.0562 41.2729C49.6683 41.3595 49.2707 41.1574 49.1156 40.7821C48.941 40.3683 49.1446 39.8872 49.5616 39.714C53.0625 38.2994 54.4105 36.2016 54.2069 32.4775V32.4294C54.1722 31.8509 54.0977 31.2183 53.9871 30.5455L34.3758 34.9379C34.5611 35.5821 34.7612 36.1692 34.9763 36.6924C34.986 36.7116 34.9957 36.7309 34.9957 36.7501C36.4115 40.2336 38.545 41.5712 42.3368 41.3499C42.7926 41.321 43.1806 41.6674 43.1999 42.1197C43.229 42.5142 42.9575 42.8703 42.5696 42.9569L42.5489 42.9611C42.5096 42.9691 42.4752 42.9761 42.4338 42.9761C37.9438 43.2263 35.1799 41.5134 33.4925 37.4141L33.4886 37.4068L33.4849 37.4003C33.4783 37.389 33.4731 37.3801 33.4731 37.366C33.2172 36.7492 32.9833 36.0558 32.7673 35.2982Z" fill="white"/>
<path d="M53.5183 25.7511L53.7362 26.7271L53.7477 26.7245L53.7591 26.7217L53.5183 25.7511ZM52.5776 25.2603L51.6518 25.6382L51.6535 25.6424L52.5776 25.2603ZM53.6541 25.703L53.2961 24.7692L53.2852 24.7735L53.6541 25.703ZM54.1099 24.6445L53.184 25.0225L53.1885 25.0332L54.1099 24.6445ZM45.1395 19.0247L45.0798 18.0265L45.0763 18.0267L45.1395 19.0247ZM44.3637 19.8908L45.3616 19.8266V19.8266L44.3637 19.8908ZM45.2365 20.6606L45.1757 19.6624L45.1732 19.6626L45.2365 20.6606ZM32.5906 30.4279V29.4279H32.559L32.5274 29.4299L32.5906 30.4279ZM32.7264 30.4086L32.5032 29.4338L32.4944 29.4359L32.4856 29.438L32.7264 30.4086ZM31.7179 29.658L30.7197 29.7186L30.7199 29.7222L31.7179 29.658ZM37.3813 20.7568L37.7543 21.6847L37.7649 21.6803L37.3813 20.7568ZM38.4481 21.2091L37.5162 21.5719L37.5213 21.5849L37.5267 21.5978L38.4481 21.2091ZM37.9923 22.2676L37.6343 21.3339L37.6268 21.3368L37.6194 21.3397L37.9923 22.2676ZM33.3568 29.5522L32.3586 29.6139L32.3592 29.6223L33.3568 29.5522ZM31.9991 35.4703L32.2099 36.4478L32.2176 36.4461L31.9991 35.4703ZM32.7673 35.2982L33.729 35.024L33.4701 34.116L32.5488 34.3224L32.7673 35.2982ZM31.0196 34.8544L31.9964 34.6404H31.9964L31.0196 34.8544ZM31.6403 33.8825L31.8511 34.86L31.8588 34.8583L31.6403 33.8825ZM54.3787 28.7896L54.5973 29.7654L54.6483 29.754L54.6978 29.7374L54.3787 28.7896ZM54.4784 28.7631L54.2878 27.7814L54.2837 27.7822L54.4784 28.7631ZM54.5408 28.7533L54.659 29.7463L54.7096 29.7403L54.7593 29.7291L54.5408 28.7533ZM56.0009 28.4263L55.7901 27.4487L55.7824 27.4505L56.0009 28.4263ZM56.3597 30.0141L56.1489 29.0365L56.1412 29.0382L56.3597 30.0141ZM55.597 30.1849L55.3784 29.2091L54.4499 29.4171L54.6115 30.3548L55.597 30.1849ZM55.8458 32.2851H56.8458V32.2574L56.8442 32.2298L55.8458 32.2851ZM55.8458 32.3332H54.8458V32.3636L54.8476 32.394L55.8458 32.3332ZM50.1823 41.2248L49.8093 40.2969L49.6892 40.3452L49.5853 40.4225L50.1823 41.2248ZM50.0562 41.2729L49.8616 40.292L49.8499 40.2943L49.8383 40.2969L50.0562 41.2729ZM49.1156 40.7821L50.0397 40.4L50.0369 40.3934L49.1156 40.7821ZM49.5616 39.714L49.187 38.7867L49.178 38.7905L49.5616 39.714ZM54.2069 32.4775H53.2069V32.5048L53.2083 32.5321L54.2069 32.4775ZM54.2069 32.4294H55.2069V32.3994L55.2051 32.3695L54.2069 32.4294ZM53.9871 30.5455L54.9739 30.3832L54.802 29.3382L53.7685 29.5697L53.9871 30.5455ZM34.3758 34.9379L34.1572 33.9621L33.1213 34.1941L33.4148 35.2144L34.3758 34.9379ZM34.9763 36.6924L34.0514 37.0726L34.066 37.1081L34.0832 37.1423L34.9763 36.6924ZM34.9957 36.7501H33.9957V36.9456L34.0693 37.1266L34.9957 36.7501ZM42.3368 41.3499L42.3951 42.3482L42.4001 42.3479L42.3368 41.3499ZM43.1999 42.1197L42.2009 42.1625L42.2015 42.1779L42.2027 42.1932L43.1999 42.1197ZM42.5696 42.9569L42.7679 43.937L42.7777 43.935L42.7875 43.9329L42.5696 42.9569ZM42.5489 42.9611L42.3507 41.9809L42.3487 41.9813L42.5489 42.9611ZM42.4338 42.9761V41.9761H42.406L42.3782 41.9777L42.4338 42.9761ZM33.4925 37.4141L34.4173 37.0334L34.3983 36.9873L34.3748 36.9433L33.4925 37.4141ZM33.4886 37.4068L34.3709 36.936L34.3636 36.9223L34.3558 36.9088L33.4886 37.4068ZM33.4849 37.4003L34.3521 36.9024L34.3492 36.8974L33.4849 37.4003ZM33.4731 37.366H34.4731V37.1667L34.3968 36.9827L33.4731 37.366ZM53.3004 24.7751C53.3838 24.7565 53.47 24.8014 53.5018 24.8783L51.6535 25.6424C51.9956 26.4699 52.877 26.9189 53.7362 26.7271L53.3004 24.7751ZM53.2852 24.7735C53.2725 24.7786 53.2634 24.7822 53.255 24.7854C53.2468 24.7886 53.242 24.7904 53.2392 24.7915C53.2363 24.7925 53.238 24.7918 53.243 24.7902C53.2457 24.7894 53.2499 24.788 53.2554 24.7865C53.2609 24.7849 53.2683 24.7828 53.2775 24.7805L53.7591 26.7217C53.8779 26.6922 53.9971 26.6427 54.023 26.6325L53.2852 24.7735ZM53.1885 25.0332C53.1419 24.9227 53.1984 24.8067 53.2961 24.7693L54.0121 26.6367C54.9631 26.2721 55.4269 25.1938 55.0312 24.2558L53.1885 25.0332ZM45.1991 20.0229C47.3164 19.8964 48.9095 20.2458 50.1484 21.022C51.3866 21.7978 52.3884 23.0735 53.184 25.0224L55.0357 24.2665C54.1342 22.0583 52.9056 20.3894 51.2102 19.3272C49.5156 18.2655 47.472 17.8835 45.0798 18.0265L45.1991 20.0229ZM45.3616 19.8266C45.3693 19.9459 45.2781 20.0179 45.2027 20.0227L45.0763 18.0267C44.0893 18.0892 43.2999 18.931 43.3657 19.955L45.3616 19.8266ZM45.1732 19.6626C45.274 19.6562 45.3556 19.7338 45.3616 19.8266L43.3657 19.9549C43.4299 20.9522 44.2873 21.7227 45.2997 21.6586L45.1732 19.6626ZM53.5035 24.8825C52.7441 23.0217 51.7474 21.6086 50.3258 20.7168C48.9046 19.8253 47.1937 19.5395 45.1757 19.6624L45.2973 21.6587C47.071 21.5507 48.3179 21.8182 49.263 22.4111C50.2076 23.0036 50.9856 24.0059 51.6518 25.6382L53.5035 24.8825ZM32.5906 31.4279C32.7594 31.4279 32.8998 31.3959 32.9672 31.3792L32.4856 29.438C32.4843 29.4384 32.4926 29.4362 32.5074 29.4339C32.5215 29.4317 32.5506 29.4279 32.5906 29.4279V31.4279ZM30.7199 29.7222C30.7841 30.7195 31.6415 31.49 32.6539 31.4259L32.5274 29.4299C32.6282 29.4235 32.7098 29.5011 32.7158 29.5938L30.7199 29.7222ZM37.0084 19.829C34.7861 20.7222 33.1045 21.9403 32.033 23.6241C30.9611 25.3088 30.5754 27.341 30.7197 29.7186L32.716 29.5974C32.5888 27.5003 32.9401 25.924 33.7204 24.6978C34.5012 23.4707 35.7871 22.4754 37.7543 21.6847L37.0084 19.829ZM39.3799 20.8463C39.0089 19.8933 37.9261 19.4477 36.9977 19.8333L37.7649 21.6803C37.6705 21.7195 37.5575 21.6781 37.5162 21.5719L39.3799 20.8463ZM38.3503 23.2014C39.3013 22.8367 39.7651 21.7584 39.3694 20.8204L37.5267 21.5978C37.4801 21.4874 37.5366 21.3713 37.6343 21.3339L38.3503 23.2014ZM34.3549 29.4904C34.2462 27.7338 34.5152 26.5012 35.1105 25.5667C35.7068 24.6308 36.7171 23.8577 38.3651 23.1955L37.6194 21.3397C35.7472 22.0921 34.3234 23.08 33.4238 24.4921C32.5232 25.9056 32.2346 27.6079 32.3587 29.6139L34.3549 29.4904ZM32.9496 31.3834C33.7962 31.1895 34.4188 30.3994 34.3543 29.482L32.3592 29.6223C32.3529 29.5325 32.413 29.4545 32.5032 29.4338L32.9496 31.3834ZM32.2176 36.4461L32.9859 36.274L32.5488 34.3224L31.7805 34.4944L32.2176 36.4461ZM30.0428 35.0684C30.2627 36.0722 31.2484 36.6552 32.2099 36.4478L31.7882 34.4927C31.8229 34.4853 31.8677 34.4909 31.9086 34.5165C31.9509 34.543 31.9852 34.589 31.9964 34.6404L30.0428 35.0684ZM31.4294 32.905C30.432 33.1201 29.8296 34.0953 30.0428 35.0684L31.9964 34.6404C32.0054 34.6811 31.998 34.7313 31.9705 34.7746C31.9423 34.819 31.8966 34.8502 31.8511 34.86L31.4294 32.905ZM54.1602 27.8138L31.4217 32.9067L31.8588 34.8583L54.5973 29.7654L54.1602 27.8138ZM54.2837 27.7822C54.2072 27.7974 54.1324 27.8174 54.0597 27.8419L54.6978 29.7374C54.6896 29.7401 54.6813 29.7423 54.673 29.744L54.2837 27.7822ZM54.4226 27.7603C54.3776 27.7657 54.3327 27.7727 54.2878 27.7814L54.669 29.7448C54.6658 29.7454 54.6624 29.7459 54.659 29.7463L54.4226 27.7603ZM55.7824 27.4505L54.3222 27.7775L54.7593 29.7291L56.2195 29.4021L55.7824 27.4505ZM57.9572 28.8281C57.7373 27.8243 56.7516 27.2414 55.7901 27.4488L56.2118 29.4038C56.1771 29.4113 56.1323 29.4056 56.0914 29.38C56.0491 29.3536 56.0148 29.3075 56.0036 29.2562L57.9572 28.8281ZM56.5706 30.9916C57.568 30.7764 58.1704 29.8012 57.9572 28.8281L56.0036 29.2562C55.9946 29.2154 56.002 29.1653 56.0295 29.1219C56.0577 29.0776 56.1034 29.0464 56.1489 29.0365L56.5706 30.9916ZM55.8156 31.1607L56.5783 30.9899L56.1412 29.0382L55.3784 29.2091L55.8156 31.1607ZM56.8442 32.2298C56.8057 31.5339 56.7162 30.7911 56.5825 30.015L54.6115 30.3548C54.7347 31.0693 54.8138 31.7345 54.8473 32.3404L56.8442 32.2298ZM56.8458 32.3332V32.2851H54.8458V32.3332H56.8458ZM50.5553 42.1526C52.7783 41.259 54.4595 40.0384 55.5306 38.3551C56.6023 36.6708 56.9883 34.6412 56.8439 32.2723L54.8476 32.394C54.9748 34.4806 54.6238 36.0547 53.8432 37.2814C53.0621 38.509 51.7757 39.5065 49.8093 40.2969L50.5553 42.1526ZM50.2509 42.2537C50.3172 42.2406 50.5486 42.1987 50.7794 42.027L49.5853 40.4225C49.6571 40.3691 49.7301 40.3341 49.7924 40.3122C49.8432 40.2944 49.8809 40.2882 49.8616 40.292L50.2509 42.2537ZM48.1914 41.1642C48.5335 41.9916 49.4149 42.4407 50.2741 42.2488L49.8383 40.2969C49.9217 40.2783 50.0079 40.3232 50.0397 40.4L48.1914 41.1642ZM49.178 38.7905C48.2633 39.1704 47.7982 40.232 48.1942 41.1708L50.0369 40.3934C50.0838 40.5046 50.026 40.6039 49.9452 40.6375L49.178 38.7905ZM53.2083 32.5321C53.3033 34.2687 53.0291 35.4915 52.432 36.4215C51.8337 37.3533 50.8256 38.1247 49.187 38.7868L49.9363 40.6411C51.7985 39.8887 53.2149 38.9038 54.1149 37.5021C55.0161 36.0986 55.3141 34.4104 55.2054 32.4229L53.2083 32.5321ZM53.2069 32.4294V32.4775H55.2069V32.4294H53.2069ZM53.0004 30.7077C53.1065 31.3534 53.1764 31.9514 53.2087 32.4893L55.2051 32.3695C55.1679 31.7505 55.0889 31.0831 54.9739 30.3832L53.0004 30.7077ZM34.5944 35.9138L54.2057 31.5213L53.7685 29.5697L34.1572 33.9621L34.5944 35.9138ZM35.9012 36.3122C35.7028 35.8295 35.5141 35.2779 35.3368 34.6615L33.4148 35.2144C33.608 35.8862 33.8197 36.509 34.0514 37.0726L35.9012 36.3122ZM35.9957 36.7501C35.9957 36.5754 35.9522 36.4397 35.925 36.3677C35.8994 36.3 35.8693 36.2424 35.8693 36.2424L34.0832 37.1423C34.0929 37.1615 34.0725 37.1233 34.0542 37.0748C34.0343 37.022 33.9957 36.9056 33.9957 36.7501H35.9957ZM42.2786 40.3516C40.5043 40.4551 39.2537 40.1856 38.3063 39.5919C37.3602 38.999 36.5827 37.999 35.9221 36.3736L34.0693 37.1266C34.8245 38.9847 35.8217 40.3952 37.2443 41.2867C38.6655 42.1773 40.3775 42.4659 42.3951 42.3482L42.2786 40.3516ZM44.199 42.0768C44.1553 41.0576 43.2813 40.288 42.2736 40.3519L42.4001 42.3479C42.304 42.3539 42.2058 42.2772 42.2009 42.1625L44.199 42.0768ZM42.7875 43.9329C43.6449 43.7414 44.2639 42.9502 44.1972 42.0461L42.2027 42.1932C42.1942 42.0783 42.2701 41.9991 42.3517 41.9809L42.7875 43.9329ZM42.7472 43.9412L42.7679 43.937L42.3713 41.9767L42.3507 41.9809L42.7472 43.9412ZM42.4338 43.9761C42.59 43.9761 42.7179 43.9472 42.7492 43.9408L42.3487 41.9813C42.3376 41.9836 42.3348 41.9841 42.3332 41.9844C42.3325 41.9846 42.3375 41.9836 42.346 41.9824C42.3651 41.9795 42.3959 41.9761 42.4338 41.9761V43.9761ZM32.5678 37.7947C33.4659 39.9765 34.6935 41.6247 36.3843 42.6755C38.0731 43.7251 40.1088 44.1072 42.4895 43.9746L42.3782 41.9777C40.2688 42.0952 38.6775 41.746 37.4401 40.9769C36.2045 40.209 35.2066 38.951 34.4173 37.0334L32.5678 37.7947ZM32.6064 37.8776L32.6103 37.8849L34.3748 36.9433L34.3709 36.936L32.6064 37.8776ZM32.6177 37.8983L32.6214 37.9047L34.3558 36.9088L34.3521 36.9024L32.6177 37.8983ZM32.4731 37.366C32.4731 37.6778 32.6174 37.8978 32.6206 37.9033L34.3492 36.8974C34.3381 36.8782 34.3766 36.9402 34.4074 37.0189C34.4472 37.1201 34.4731 37.238 34.4731 37.366H32.4731ZM31.8056 35.5724C32.0293 36.3568 32.2752 37.0882 32.5495 37.7492L34.3968 36.9827C34.1592 36.4102 33.9373 35.7548 33.729 35.024L31.8056 35.5724Z" fill="#DB1E46" mask="url(#path-11-outside-1_1_148)"/>
</svg>
