<svg width="28" height="28" viewBox="0 0 28 28" fill="none" xmlns="http://www.w3.org/2000/svg">
<path fill-rule="evenodd" clip-rule="evenodd" d="M10.5 13.0006C10.5 11.0671 12.0668 9.5 13.9994 9.5C15.9331 9.5 17.5 11.0669 17.5 13.0006C17.5 14.9332 15.9329 16.5 13.9994 16.5C12.0669 16.5 10.5 14.9331 10.5 13.0006ZM13.9994 10.5C12.6194 10.5 11.5 11.6191 11.5 13.0006C11.5 14.3808 12.6192 15.5 13.9994 15.5C15.3809 15.5 16.5 14.3806 16.5 13.0006C16.5 11.6192 15.3808 10.5 13.9994 10.5Z" fill="white"/>
<path fill-rule="evenodd" clip-rule="evenodd" d="M13.9995 6.5C10.3925 6.5 7.5 9.31717 7.5 12.7543C7.5 14.9919 8.5128 17.1947 9.87157 18.8462C10.5487 19.6691 11.3001 20.3405 12.0318 20.8026C12.7704 21.2692 13.4526 21.5 13.9995 21.5C14.5468 21.5 15.2291 21.2691 15.9679 20.8026C16.6997 20.3405 17.4512 19.6691 18.1283 18.8461C19.4872 17.1947 20.5 14.9919 20.5 12.7543C20.5 9.31725 17.6067 6.5 13.9995 6.5ZM6.5 12.7543C6.5 8.73166 9.87406 5.5 13.9995 5.5C18.1249 5.5 21.5 8.73157 21.5 12.7543C21.5 15.2812 20.3654 17.7013 18.9005 19.4815C18.1658 20.3745 17.3363 21.1212 16.5018 21.6481C15.6743 22.1707 14.8052 22.5 13.9995 22.5C13.1941 22.5 12.3251 22.1707 11.4978 21.6481C10.6634 21.1211 9.83404 20.3744 9.09936 19.4815C7.63456 17.7012 6.5 15.2812 6.5 12.7543Z" fill="white"/>
</svg>
