<svg width="24" height="24" viewBox="0 0 24 24" fill="none" xmlns="http://www.w3.org/2000/svg">
<path fill-rule="evenodd" clip-rule="evenodd" d="M11.2753 3.46423C6.96095 3.46423 3.46436 6.96083 3.46436 11.2752C3.46436 15.5895 6.96095 19.0861 11.2753 19.0861C15.5888 19.0861 19.0863 15.5895 19.0863 11.2752C19.0863 6.96088 15.5888 3.46423 11.2753 3.46423ZM1.96436 11.2752C1.96436 6.1324 6.13252 1.96423 11.2753 1.96423C16.4171 1.96423 20.5863 6.13235 20.5863 11.2752C20.5863 16.418 16.4171 20.5861 11.2753 20.5861C6.13252 20.5861 1.96436 16.418 1.96436 11.2752Z" fill="#70AF00"/>
<path fill-rule="evenodd" clip-rule="evenodd" d="M19.8987 19.2375C19.5336 19.2375 19.2373 19.5345 19.2373 19.898C19.2373 20.2635 19.5336 20.5595 19.8987 20.5595C20.2632 20.5595 20.5592 20.2641 20.5592 19.898C20.5592 19.5338 20.2632 19.2375 19.8987 19.2375ZM17.7373 19.898C17.7373 18.7054 18.7058 17.7375 19.8987 17.7375C21.0923 17.7375 22.0592 18.706 22.0592 19.898C22.0592 21.0919 21.0923 22.0595 19.8987 22.0595C18.7058 22.0595 17.7373 21.0926 17.7373 19.898Z" fill="#70AF00"/>
</svg>
