<svg width="72" height="72" viewBox="0 0 72 72" fill="none" xmlns="http://www.w3.org/2000/svg">
<path d="M25.1106 22.3256C25.3754 21.8665 26.0226 21.8665 26.2874 22.3256C28.631 26.3693 37.1622 28.5181 37.78 35.0721C38.3193 40.8544 33.9655 45.5916 25.699 45.5916C17.4325 45.5916 13.0689 40.8544 13.618 35.0721C14.226 28.5181 22.767 26.3595 25.1106 22.3256Z" fill="#B891FF"/>
<path d="M25.1107 22.3256C22.767 26.3595 14.226 28.5181 13.6082 35.0721C13.0689 40.8544 17.4228 45.5916 25.6892 45.5916V21.9837C25.4637 21.9837 25.2382 22.0911 25.1107 22.3256Z" fill="#B891FF"/>
<path d="M25.3752 22.3256C25.5223 21.8665 25.8753 21.8665 26.0224 22.3256C27.307 26.3693 32.0041 28.5181 32.3473 35.0721C32.6415 40.8544 30.2488 45.5916 25.6988 45.5916C21.1489 45.5916 18.7562 40.8544 19.0504 35.0721C19.3838 28.5181 24.0808 26.3595 25.3752 22.3256Z" fill="#9972E8"/>
<path d="M38.4468 33.1479C38.7116 32.6888 39.3588 32.6888 39.6235 33.1479C41.9672 37.1916 50.4984 39.3404 51.1162 45.8944C51.6555 51.6767 47.3016 56.4139 39.0352 56.4139C30.7687 56.4139 26.405 51.6767 26.9542 45.8944C27.572 39.3404 36.1032 37.1818 38.4468 33.1479Z" fill="#FFE99E"/>
<path d="M48.7039 46.119C48.4293 43.1986 45.7327 41.3134 42.8791 39.3111C42.2123 38.8423 41.5651 38.3832 40.9375 37.9144C40.3688 37.4846 39.702 37.2697 39.0253 37.2697C38.3487 37.2697 37.6819 37.4846 37.1132 37.9144C36.4954 38.3832 35.8384 38.8423 35.1716 39.3111C32.318 41.3134 29.6214 43.1986 29.3468 46.119C29.1605 48.0823 29.7096 49.8306 30.9354 51.1688C31.965 52.292 33.4555 53.1027 35.2794 53.5618C36.8092 53.9427 38.3291 52.8781 38.4958 51.3153L38.6919 49.5181C38.7115 49.3325 38.8586 49.2446 38.9959 49.2446C39.143 49.2446 39.2803 49.3325 39.3097 49.5181L39.5058 51.3153C39.6823 52.8781 41.1925 53.9427 42.7222 53.5618C44.5461 53.1125 46.0366 52.3018 47.0663 51.1688C48.341 49.8306 48.8902 48.0823 48.7039 46.119Z" fill="#E8434C"/>
<path d="M43.2811 46.1386C43.2811 43.8042 41.3787 41.9093 39.0351 41.9093C36.6914 41.9093 34.7891 43.8042 34.7891 46.1386C34.7891 48.3363 36.4757 50.1433 38.633 50.3484L38.7213 49.5181C38.7409 49.3326 38.888 49.2447 39.0351 49.2447C39.1822 49.2447 39.3194 49.3326 39.3391 49.5181L39.4273 50.3484C41.5944 50.1433 43.2811 48.346 43.2811 46.1386Z" fill="#FF5E67"/>
<path d="M51.6849 45.8358C51.2828 41.5479 47.7331 39.0572 44.6049 36.8693C42.732 35.5507 40.9571 34.3102 40.1138 32.8646C39.8883 32.4739 39.4862 32.2395 39.0351 32.2395C38.5841 32.2395 38.182 32.4739 37.9565 32.8646C37.9369 32.8939 37.9172 32.933 37.8976 32.9623C36.7699 29.8563 33.8576 27.8149 31.2688 25.9981C29.3958 24.6795 27.6209 23.439 26.7776 21.9935C26.5521 21.6028 26.15 21.3683 25.699 21.3683C25.2479 21.3683 24.8458 21.6028 24.6203 21.9935C23.7868 23.439 22.0119 24.6795 20.1291 25.9981C17.001 28.186 13.4512 30.6767 13.0492 34.9646C12.7844 37.7483 13.6278 40.3465 15.4124 42.3C16.5107 43.5014 17.9326 44.439 19.6388 45.0837C21.4137 45.7576 23.4534 46.0995 25.7088 46.0995C25.9343 46.0995 26.1598 46.0995 26.3854 46.0897C26.1991 48.7758 27.0424 51.286 28.7682 53.1711C29.8665 54.3725 31.2884 55.3102 32.9946 55.9549C34.7695 56.6288 36.8092 56.9707 39.0645 56.9707C41.3199 56.9707 43.3596 56.6288 45.1345 55.9549C46.8407 55.3102 48.2626 54.3725 49.3609 53.1711C51.1063 51.2274 51.9398 48.6195 51.6849 45.8358ZM16.246 41.5381C14.6574 39.8093 13.9415 37.5628 14.1769 35.0721C14.5299 31.3018 17.7071 29.0749 20.7763 26.926C21.5412 26.3888 22.2865 25.8711 22.9729 25.3339C22.7768 25.5977 22.5708 25.8516 22.3649 26.1153C20.6489 28.3032 18.6975 30.7842 18.4817 34.9939C18.2856 38.8423 19.2466 42.1828 21.1294 44.1558C21.2372 44.2632 21.3451 44.3707 21.453 44.4781C19.2956 43.9214 17.5109 42.9251 16.246 41.5381ZM25.699 44.9763C24.2281 44.9763 22.9729 44.439 21.9531 43.3744C20.286 41.626 19.4329 38.5883 19.6192 35.0525C19.8153 31.2042 21.5706 28.9674 23.2573 26.8088C24.2182 25.5879 25.1302 24.4256 25.6891 23.0386C26.2579 24.4158 27.1699 25.5781 28.121 26.8088C28.5721 27.3753 29.033 27.9711 29.4645 28.5865C29.641 28.8404 29.994 28.9088 30.2587 28.733C30.5137 28.5572 30.5823 28.2056 30.4058 27.9418C29.9548 27.2972 29.4841 26.6916 29.0232 26.1056C28.8173 25.8418 28.6113 25.5781 28.4152 25.3242C29.1016 25.8614 29.8469 26.3888 30.6118 26.9163C33.3869 28.86 36.26 30.8818 37.0347 34.0465C36.1031 35.0135 34.8087 35.9218 33.4653 36.8693C33.2692 37.006 33.0829 37.1428 32.8868 37.2795C32.9456 36.5372 32.9456 35.7753 32.9064 34.9939C32.8181 33.2651 32.4357 31.7023 31.7297 30.1981C31.5924 29.9149 31.259 29.7976 30.9746 29.9246C30.6902 30.0614 30.5725 30.3935 30.7 30.6767C31.3374 32.0344 31.6904 33.4702 31.7689 35.0428C31.8277 36.127 31.7787 37.1818 31.6414 38.1683C29.3174 39.8972 27.1404 41.9483 26.5227 44.9079C26.2579 44.947 25.9833 44.9763 25.699 44.9763ZM48.4881 52.4093C46.4681 54.6265 43.1046 55.8377 39.0351 55.8377C34.9656 55.8377 31.612 54.6167 29.5821 52.4093C27.9936 50.6707 27.2777 48.4339 27.5131 45.9432C27.8661 42.173 31.0432 39.946 34.1125 37.7972C36.0933 36.4102 37.9663 35.0916 38.9273 33.4311C38.9469 33.3921 38.9861 33.3725 39.0253 33.3725C39.0645 33.3725 39.1038 33.3921 39.1234 33.4311C40.0844 35.0916 41.9573 36.4102 43.9381 37.7972C47.0074 39.946 50.1846 42.173 50.5376 45.9432C50.7827 48.4437 50.0767 50.6804 48.4881 52.4093Z" fill="black"/>
<path d="M43.183 38.813C42.928 38.6372 42.575 38.6958 42.3887 38.9498C42.2122 39.2037 42.271 39.5553 42.526 39.7312C45.1442 41.5772 47.8997 43.6479 48.135 46.1581C48.3017 47.9553 47.8016 49.5572 46.6837 50.7781C45.7424 51.8037 44.3401 52.5753 42.6241 52.9953C42.0553 53.1321 41.4571 53.0246 40.9766 52.6925C40.4863 52.3507 40.1725 51.8232 40.1039 51.2372L39.9078 49.4693C39.8588 49.0102 39.4763 48.6586 39.0154 48.6684C38.5644 48.6781 38.2113 49.0005 38.1623 49.4498L37.9662 51.247C37.8976 51.833 37.5838 52.3605 37.0935 52.7023C36.613 53.0344 36.0148 53.1419 35.4461 53.0051C33.7202 52.5753 32.3179 51.8037 31.3864 50.7879C30.2685 49.567 29.7684 47.9749 29.9351 46.1679C30.1802 43.5112 32.7788 41.6944 35.5245 39.7702C36.2011 39.2916 36.8483 38.8423 37.4759 38.3637C38.3977 37.6702 39.6724 37.6702 40.5942 38.3539C40.8394 38.5395 41.1924 38.5102 41.3885 38.2758C41.5944 38.0219 41.5552 37.6605 41.3002 37.4651C39.9764 36.4591 38.1231 36.4591 36.7993 37.4651C36.1913 37.9242 35.5539 38.3735 34.8773 38.8423C31.9159 40.9228 29.1114 42.8763 28.8172 46.0605C28.6211 48.1898 29.2192 50.0846 30.5529 51.54C31.6413 52.7316 33.2397 53.6107 35.1813 54.0991C36.0638 54.3237 37.0052 54.1479 37.7505 53.6302C38.4173 53.1712 38.8782 52.4777 39.0449 51.706C39.2214 52.4874 39.6724 53.1712 40.3393 53.6302C40.8786 54.0014 41.5062 54.1967 42.1436 54.1967C42.3985 54.1967 42.6535 54.1674 42.9084 54.0991C44.85 53.6205 46.4484 52.7316 47.5369 51.54C48.8705 50.0749 49.4785 48.18 49.2725 46.0605C48.9882 43.0521 46.0169 40.8153 43.183 38.813Z" fill="black"/>
<path d="M33.2398 49.1372C33.3574 49.1372 33.4849 49.0981 33.5928 49.02L33.936 48.7563C34.1812 48.5609 34.2302 48.2093 34.0341 47.9651C33.8379 47.7209 33.4849 47.6721 33.2398 47.8674L32.8966 48.1311C32.6514 48.3265 32.6024 48.6781 32.7985 48.9223C32.8966 49.0591 33.0633 49.1372 33.2398 49.1372Z" fill="black"/>
<path d="M33.5044 45.9433C33.7006 45.6991 33.6613 45.3474 33.4162 45.1521L33.2299 45.0056C32.9847 44.8102 32.6317 44.8493 32.4356 45.0935C32.2395 45.3377 32.2787 45.6893 32.5238 45.8847L32.7102 46.0312C32.818 46.1191 32.9357 46.1581 33.0632 46.1581C33.2299 46.1581 33.3868 46.08 33.5044 45.9433Z" fill="black"/>
<path d="M35.956 43.2865C36.0835 43.2865 36.211 43.2474 36.3188 43.1595C36.564 42.9642 36.5934 42.6028 36.3875 42.3683L36.2012 42.1437C36.0051 41.8995 35.6422 41.8702 35.4069 42.0753C35.1617 42.2707 35.1323 42.6321 35.3382 42.8665L35.5246 43.0911C35.6324 43.2181 35.7893 43.2865 35.956 43.2865Z" fill="black"/>
<path d="M39.4078 40.3562L39.5941 40.239C39.8589 40.0828 39.9472 39.7311 39.7903 39.4674C39.6334 39.2037 39.2803 39.1158 39.0156 39.2721L38.8293 39.3893C38.5645 39.5455 38.4762 39.8972 38.6331 40.1609C38.741 40.3367 38.9273 40.4344 39.1234 40.4344C39.2117 40.4441 39.3098 40.4148 39.4078 40.3562Z" fill="black"/>
<path d="M41.6043 42.9642C41.7122 43.1204 41.8887 43.1986 42.0652 43.1986C42.1829 43.1986 42.3006 43.1595 42.3986 43.0911L42.8203 42.7884C43.0752 42.6028 43.1341 42.2512 42.9478 41.9972C42.7614 41.7432 42.4084 41.6846 42.1535 41.8702L41.7318 42.173C41.4768 42.3586 41.4278 42.7102 41.6043 42.9642Z" fill="black"/>
<path d="M44.7717 44.5465C44.7129 44.2437 44.4089 44.0386 44.1049 44.107C43.8009 44.1656 43.595 44.4684 43.6636 44.7712L43.7421 45.1521C43.7911 45.4256 44.0363 45.6112 44.301 45.6112C44.3402 45.6112 44.3795 45.6112 44.4089 45.6014C44.7129 45.5428 44.9188 45.24 44.8501 44.9372L44.7717 44.5465Z" fill="black"/>
<path d="M45.1149 48.0432L45.4189 48.1897C45.4973 48.2288 45.5856 48.2483 45.6739 48.2483C45.8798 48.2483 46.0857 48.1311 46.1838 47.9358C46.321 47.6525 46.2132 47.3204 45.9288 47.1739L45.6248 47.0274C45.3405 46.8907 45.007 46.9981 44.86 47.2814C44.7129 47.5646 44.8305 47.9065 45.1149 48.0432Z" fill="black"/>
<path d="M43.0654 50.3484V50.4265C43.0654 50.7391 43.3204 50.993 43.6342 50.993C43.948 50.993 44.2029 50.7391 44.2029 50.4265V50.3484C44.2029 50.0358 43.948 49.7819 43.6342 49.7819C43.3204 49.7819 43.0654 50.0358 43.0654 50.3484Z" fill="black"/>
<path d="M36.6522 47.2326C36.917 47.0763 37.0052 46.7247 36.8483 46.4609L36.4855 45.8456C36.3286 45.5819 35.9756 45.494 35.7109 45.6502C35.4461 45.8065 35.3578 46.1581 35.5147 46.4219L35.8776 47.0372C35.9854 47.213 36.1717 47.3107 36.3679 47.3107C36.4561 47.3107 36.5542 47.2814 36.6522 47.2326Z" fill="black"/>
<path d="M39.7902 46.1386C39.9078 46.1386 40.0255 46.0995 40.1334 46.0214L40.2805 45.9042C40.5354 45.7186 40.5844 45.367 40.3981 45.113C40.2118 44.8591 39.8588 44.8102 39.6038 44.9958L39.4568 45.113C39.2018 45.2986 39.1528 45.6502 39.3391 45.9042C39.4469 46.0605 39.6235 46.1386 39.7902 46.1386Z" fill="black"/>
<path d="M35.0637 50.2605C34.8872 50.5242 34.9656 50.8758 35.2304 51.0419L35.3873 51.1493C35.4854 51.2079 35.5932 51.247 35.7011 51.247C35.8874 51.247 36.0639 51.1591 36.1718 50.993C36.3483 50.7293 36.2699 50.3777 36.0051 50.2116L35.8482 50.1042C35.5932 49.9284 35.2402 49.9967 35.0637 50.2605Z" fill="black"/>
<path d="M38.7213 42.4074C38.4663 42.2218 38.1133 42.2707 37.927 42.5246C37.7407 42.7786 37.7897 43.1302 38.0446 43.3158L38.1917 43.433C38.2898 43.5112 38.4173 43.5502 38.5349 43.5502C38.7115 43.5502 38.8782 43.4721 38.986 43.3256C39.1723 43.0716 39.1233 42.72 38.8683 42.5344L38.7213 42.4074Z" fill="black"/>
<path d="M41.4375 47.2618C41.1531 47.3985 41.0453 47.7404 41.1826 48.0237L41.2218 48.1018C41.3198 48.2972 41.5258 48.4144 41.7317 48.4144C41.8199 48.4144 41.9082 48.3948 41.9866 48.3558C42.271 48.219 42.3789 47.8772 42.2416 47.5939L42.2024 47.5158C42.0553 47.2325 41.7121 47.1153 41.4375 47.2618Z" fill="black"/>
<path opacity="0.85" d="M44.153 41.9094C41.6044 42.4765 33.3141 40.4427 29.516 34.087C27.0864 30.0194 27.3442 23.9473 32.0051 21.2388C34.3553 19.8698 37.2113 19.8992 39.4029 21.2583C40.8706 18.8138 43.786 17.8947 46.1065 18.1C51.5012 18.5791 54.377 23.9473 53.9605 28.6505C53.6234 32.7083 51.4715 35.8959 49.7261 37.8515C47.6535 40.1591 45.3529 41.6356 44.153 41.9094Z" fill="#DB1E46"/>
<mask id="path-23-outside-1_1_65" maskUnits="userSpaceOnUse" x="30.0002" y="14.0015" width="28" height="26" fill="black">
<rect fill="white" x="30.0002" y="14.0015" width="28" height="26"/>
<path fill-rule="evenodd" clip-rule="evenodd" d="M32.516 31.0636C36.3141 37.4381 44.6044 39.4779 47.153 38.9091C48.3529 38.6345 50.6535 37.1537 52.7261 34.8393C54.4714 32.8779 56.6234 29.6809 56.9605 25.611C57.377 20.8939 54.5012 15.51 49.1065 15.0294C46.786 14.8235 43.8706 15.7453 42.4029 18.197C40.2113 16.8339 37.3553 16.8045 35.0051 18.1774C30.3442 20.8939 30.0864 26.984 32.516 31.0636ZM41.0443 36.0946C38.8626 35.1629 35.8579 33.3977 33.9638 30.2203C31.9408 26.8271 32.0896 21.806 35.848 19.619C37.5041 18.6482 40.1716 18.3834 42.1451 20.0996C42.3533 20.2859 42.6409 20.3546 42.9086 20.2859C43.1764 20.2271 43.3946 20.0309 43.4937 19.776C44.3961 17.4125 46.9546 16.5201 48.9479 16.6966C53.3013 17.0791 55.6218 21.551 55.2747 25.4737C54.6995 32.3287 48.2934 36.9576 46.7761 37.291C45.9828 37.4675 43.6821 37.2125 41.0443 36.0946ZM51.2241 24.24C51.2339 24.2302 51.2437 24.2302 51.2535 24.2302C51.685 24.1326 51.9694 23.7028 51.8909 23.2828C51.4889 21.173 49.8905 19.9228 47.9195 20.1572C47.4586 20.2061 47.135 20.6261 47.1938 21.0754C47.2429 21.5247 47.6547 21.8568 48.1156 21.7982C49.1943 21.6712 50.018 22.3549 50.2533 23.5856C50.3416 24.0349 50.773 24.3279 51.2241 24.24Z"/>
</mask>
<path fill-rule="evenodd" clip-rule="evenodd" d="M32.516 31.0636C36.3141 37.4381 44.6044 39.4779 47.153 38.9091C48.3529 38.6345 50.6535 37.1537 52.7261 34.8393C54.4714 32.8779 56.6234 29.6809 56.9605 25.611C57.377 20.8939 54.5012 15.51 49.1065 15.0294C46.786 14.8235 43.8706 15.7453 42.4029 18.197C40.2113 16.8339 37.3553 16.8045 35.0051 18.1774C30.3442 20.8939 30.0864 26.984 32.516 31.0636ZM41.0443 36.0946C38.8626 35.1629 35.8579 33.3977 33.9638 30.2203C31.9408 26.8271 32.0896 21.806 35.848 19.619C37.5041 18.6482 40.1716 18.3834 42.1451 20.0996C42.3533 20.2859 42.6409 20.3546 42.9086 20.2859C43.1764 20.2271 43.3946 20.0309 43.4937 19.776C44.3961 17.4125 46.9546 16.5201 48.9479 16.6966C53.3013 17.0791 55.6218 21.551 55.2747 25.4737C54.6995 32.3287 48.2934 36.9576 46.7761 37.291C45.9828 37.4675 43.6821 37.2125 41.0443 36.0946ZM51.2241 24.24C51.2339 24.2302 51.2437 24.2302 51.2535 24.2302C51.685 24.1326 51.9694 23.7028 51.8909 23.2828C51.4889 21.173 49.8905 19.9228 47.9195 20.1572C47.4586 20.2061 47.135 20.6261 47.1938 21.0754C47.2429 21.5247 47.6547 21.8568 48.1156 21.7982C49.1943 21.6712 50.018 22.3549 50.2533 23.5856C50.3416 24.0349 50.773 24.3279 51.2241 24.24Z" fill="white"/>
<path d="M47.153 38.9091L47.3708 39.8851L47.376 39.8839L47.153 38.9091ZM32.516 31.0636L31.6568 31.5753L31.6569 31.5755L32.516 31.0636ZM52.7261 34.8393L53.4711 35.5064L53.4732 35.5041L52.7261 34.8393ZM56.9605 25.611L55.9644 25.5231L55.9639 25.5285L56.9605 25.611ZM49.1065 15.0294L49.1953 14.0334L49.1949 14.0333L49.1065 15.0294ZM42.4029 18.197L41.8747 19.0462L42.7384 19.5834L43.2609 18.7107L42.4029 18.197ZM35.0051 18.1774L35.5086 19.0414L35.5095 19.0409L35.0051 18.1774ZM33.9638 30.2203L34.8228 29.7082L34.8228 29.7082L33.9638 30.2203ZM41.0443 36.0946L40.6516 37.0142L40.6541 37.0153L41.0443 36.0946ZM35.848 19.619L36.3509 20.4834L36.3537 20.4817L35.848 19.619ZM42.1451 20.0996L42.8119 19.3543L42.8013 19.345L42.1451 20.0996ZM42.9086 20.2859L42.694 19.3092L42.6771 19.3129L42.6603 19.3172L42.9086 20.2859ZM43.4937 19.776L44.4257 20.1384L44.4279 20.1327L43.4937 19.776ZM48.9479 16.6966L48.8597 17.6927L48.8604 17.6928L48.9479 16.6966ZM55.2747 25.4737L54.2786 25.3856L54.2782 25.3901L55.2747 25.4737ZM46.7761 37.291L46.5615 36.3143L46.5589 36.3149L46.7761 37.291ZM51.2535 24.2302V25.2302H51.3653L51.4743 25.2056L51.2535 24.2302ZM51.2241 24.24L51.4154 25.2216L51.7142 25.1633L51.9298 24.9485L51.2241 24.24ZM51.8909 23.2828L52.8739 23.0992L52.8732 23.0956L51.8909 23.2828ZM47.9195 20.1572L48.0249 21.1517L48.0376 21.1502L47.9195 20.1572ZM47.1938 21.0754L48.1879 20.9669L48.1868 20.9562L48.1854 20.9455L47.1938 21.0754ZM48.1156 21.7982L47.9987 20.805L47.9895 20.8061L48.1156 21.7982ZM50.2533 23.5856L49.2711 23.7734L49.2721 23.7783L50.2533 23.5856ZM46.9351 37.9331C46.486 38.0334 45.6412 38.0365 44.4986 37.8349C43.3821 37.6379 42.0626 37.2598 40.699 36.6718C37.9622 35.4919 35.1354 33.5062 33.3751 30.5518L31.6569 31.5755C33.6947 34.9955 36.912 37.217 39.9071 38.5084C41.4094 39.1561 42.8777 39.5798 44.1511 39.8044C45.3984 40.0245 46.5457 40.0693 47.3708 39.8851L46.9351 37.9331ZM51.9812 34.1722C50.9948 35.2737 49.958 36.172 49.0361 36.8218C48.09 37.4888 47.3412 37.8402 46.9299 37.9343L47.376 39.8839C48.1646 39.7035 49.1662 39.1771 50.1885 38.4565C51.2351 37.7187 52.3849 36.7193 53.4711 35.5064L51.9812 34.1722ZM55.9639 25.5285C55.6519 29.2948 53.6524 32.2941 51.9791 34.1745L53.4732 35.5041C55.2905 33.4617 57.5948 30.067 57.9571 25.6936L55.9639 25.5285ZM49.0178 16.0255C53.6759 16.4404 56.3507 21.1482 55.9644 25.5231L57.9567 25.699C58.4034 20.6396 55.3265 14.5795 49.1953 14.0334L49.0178 16.0255ZM43.2609 18.7107C44.4787 16.6764 46.9647 15.8433 49.0181 16.0255L49.1949 14.0333C46.6074 13.8037 43.2624 14.8143 41.5449 17.6834L43.2609 18.7107ZM35.5095 19.0409C37.5518 17.8478 40.01 17.8863 41.8747 19.0462L42.9311 17.3479C40.4126 15.7815 37.1588 15.7611 34.5007 17.314L35.5095 19.0409ZM33.3752 30.552C31.1187 26.763 31.4969 21.3796 35.5086 19.0414L34.5015 17.3135C29.1916 20.4083 29.0542 27.205 31.6568 31.5753L33.3752 30.552ZM33.1049 30.7323C35.1522 34.1668 38.3754 36.0422 40.6516 37.0142L41.437 35.1749C39.3499 34.2836 36.5636 32.6285 34.8228 29.7082L33.1049 30.7323ZM35.3451 18.7547C33.1537 20.0298 32.0333 22.1321 31.7462 24.3383C31.4617 26.5251 31.9845 28.8532 33.1049 30.7323L34.8228 29.7082C33.9201 28.1941 33.5059 26.3151 33.7295 24.5963C33.9507 22.8969 34.7839 21.3952 36.3509 20.4834L35.3451 18.7547ZM42.8013 19.345C40.4229 17.2766 37.2668 17.6281 35.3422 18.7564L36.3537 20.4817C37.7413 19.6682 39.9204 19.4901 41.4888 20.8541L42.8013 19.345ZM42.6603 19.3172C42.7136 19.3036 42.7698 19.3167 42.8119 19.3543L41.4783 20.8448C41.9369 21.2551 42.5682 21.4055 43.157 21.2546L42.6603 19.3172ZM42.5617 19.4135C42.5766 19.3752 42.6159 19.3264 42.694 19.3092L43.1233 21.2626C43.7368 21.1278 44.2125 20.6867 44.4257 20.1384L42.5617 19.4135ZM49.0361 15.7005C46.7721 15.5 43.6763 16.4943 42.5595 19.4192L44.4279 20.1327C45.1159 18.3307 47.1371 17.5402 48.8597 17.6927L49.0361 15.7005ZM56.2708 25.5619C56.4632 23.3874 55.9204 21.0634 54.7114 19.211C53.4921 17.3429 51.5677 15.9229 49.0354 15.7004L48.8604 17.6928C50.6815 17.8528 52.094 18.86 53.0366 20.3041C53.9894 21.764 54.4333 23.6374 54.2786 25.3856L56.2708 25.5619ZM46.9908 38.2677C47.5814 38.1379 48.4062 37.6805 49.2446 37.0815C50.1241 36.4531 51.1389 35.5817 52.1197 34.4995C54.0732 32.344 55.9593 29.2752 56.2712 25.5573L54.2782 25.3901C54.015 28.5273 52.4104 31.2004 50.6377 33.1564C49.7554 34.13 48.8482 34.9067 48.0819 35.4542C47.2744 36.0312 46.7295 36.2774 46.5615 36.3143L46.9908 38.2677ZM40.6541 37.0153C42.0418 37.6034 43.3477 37.9678 44.4241 38.1623C45.4581 38.3491 46.3945 38.4004 46.9933 38.2671L46.5589 36.3149C46.3644 36.3582 45.7538 36.3702 44.7797 36.1942C43.848 36.0258 42.6847 35.7037 41.4345 35.1738L40.6541 37.0153ZM51.2535 23.2302C51.2295 23.2302 50.8391 23.2121 50.5184 23.5315L51.9298 24.9485C51.8036 25.0742 51.6469 25.1604 51.4804 25.2018C51.3474 25.235 51.2301 25.2302 51.2535 25.2302V23.2302ZM50.9079 23.4664C50.8951 23.3977 50.915 23.3472 50.9324 23.3212C50.9503 23.2944 50.9832 23.2661 51.0327 23.2549L51.4743 25.2056C52.4154 24.9925 53.0538 24.0622 52.8739 23.0992L50.9079 23.4664ZM48.0376 21.1502C48.774 21.0626 49.3986 21.2524 49.8758 21.6273C50.3578 22.006 50.7466 22.6201 50.9086 23.47L52.8732 23.0956C52.6332 21.8358 52.0217 20.7698 51.1113 20.0546C50.1961 19.3356 49.036 19.0174 47.8014 19.1642L48.0376 21.1502ZM48.1854 20.9455C48.1989 21.0486 48.1276 21.1408 48.0248 21.1517L47.8141 19.1628C46.7896 19.2714 46.0711 20.2035 46.2023 21.2052L48.1854 20.9455ZM47.9895 20.8061C48.086 20.7939 48.1766 20.8629 48.1879 20.9669L46.1997 21.1838C46.3091 22.1864 47.2234 22.9197 48.2417 22.7902L47.9895 20.8061ZM51.2355 23.3978C51.0846 22.6087 50.7266 21.9033 50.1414 21.415C49.5442 20.9166 48.7892 20.712 47.9987 20.805L48.2325 22.7913C48.5206 22.7574 48.7168 22.8311 48.86 22.9505C49.0151 23.08 49.1866 23.3318 49.2711 23.7734L51.2355 23.3978ZM51.0328 23.2585C51.127 23.2401 51.2172 23.3045 51.2346 23.3929L49.2721 23.7783C49.4659 24.7653 50.4191 25.4157 51.4154 25.2216L51.0328 23.2585Z" fill="#DB1E46" mask="url(#path-23-outside-1_1_65)"/>
</svg>
