<svg width="191" height="50" viewBox="0 0 191 50" fill="none" xmlns="http://www.w3.org/2000/svg">
<g clip-path="url(#clip0_1_221)">
<path d="M1.30204 7.87908C-0.19491 23.8788 8.25856 21.9178 11.0924 26.8658C10.7454 19.3491 6.51019 11.2191 6.44416 11.0934C6.80088 11.5128 7.15478 11.9337 7.50586 12.3561C11.0449 16.6162 12.9089 22.0211 12.6591 27.5277C12.3226 34.9051 15.8563 42.2475 22.5678 46.5347C32.7025 53.0098 46.1502 50.1501 52.6757 40.1253C55.3557 36.0246 56.5345 31.142 56.0161 26.2884C55.2922 27.0317 54.4883 27.6947 53.6186 28.2657C53.678 31.9468 52.6458 35.5647 50.649 38.6738C44.9723 47.5314 33.1003 50.1778 24.1175 44.5846C18.0289 40.7919 14.8295 34.1858 15.1607 27.5589V27.5501C15.2191 26.39 15.3856 25.2377 15.6583 24.1078C15.7164 23.8616 15.7803 23.6175 15.85 23.3729C23.612 6.84431 0.315868 0.0901626 0.00369625 0.000976562C0.00250401 0.00141641 0.00119224 0.00141641 0 0.000976562C0 0.000976562 1.81282 2.41891 1.30204 7.87908Z" fill="#3AAA35"/>
<path d="M24.984 43.2284C27.7974 44.9872 31.0599 45.9183 34.3898 45.9128C40.2323 45.906 45.9449 43.0318 49.2917 37.7922C50.9548 35.1982 51.8899 32.2145 52.0014 29.1464C47.4894 32.2799 40.3279 31.1804 31.4218 24.999C25.3236 20.7671 20.9262 20.8265 18.0723 21.9176C14.8809 29.5923 17.6329 38.6502 24.984 43.2284Z" fill="#F45604"/>
<path d="M41.1274 23.8787C41.1274 23.8787 44.9348 20.1366 42.412 15.2934C39.8893 10.4502 36.813 12.9986 39.5888 16.4095C42.8832 20.4579 41.1274 23.8787 41.1274 23.8787Z" fill="#F45604"/>
<path d="M38.4922 26.9848C38.7035 27.1305 38.9214 27.2696 39.1461 27.402C39.5603 27.6484 39.9881 27.8716 40.4275 28.0707C41.5222 28.5683 42.6825 28.9108 43.8741 29.0882C49.3606 29.9013 54.9597 27.0943 57.3894 21.8636C59.3597 17.627 60.0928 11.3866 56.22 9.31396C55.1572 8.74494 54.0142 8.82318 52.8563 9.40941C50.1788 10.7655 47.42 14.8305 45.3716 19.8875C43.3633 24.8469 40.6642 26.53 38.4922 26.9848Z" fill="#F45604"/>
<path d="M44.5179 16.8598C44.5179 16.8598 49.5359 9.67064 44.3034 3.8506C39.071 -1.96944 34.6298 3.30766 39.7022 7.05974C45.719 11.5102 44.5179 16.8598 44.5179 16.8598Z" fill="#F45604"/>
<path d="M35.2616 24.2213C36.6947 23.9916 37.6679 22.6582 37.4353 21.2431C37.2027 19.828 35.8523 18.8671 34.4192 19.0968C32.986 19.3265 32.0128 20.6599 32.2454 22.0749C32.4781 23.49 33.8284 24.451 35.2616 24.2213Z" fill="#F45604"/>
<path d="M35.9787 14.0861C36.3445 13.2143 35.9252 12.2148 35.0422 11.8537C34.1593 11.4926 33.1471 11.9066 32.7813 12.7784C32.4156 13.6502 32.8349 14.6497 33.7178 15.0108C34.6008 15.3719 35.613 14.9579 35.9787 14.0861Z" fill="#F45604"/>
<path d="M28.3945 21.6194C29.3406 21.4968 30.0069 20.64 29.8826 19.7058C29.7584 18.7716 28.8907 18.1137 27.9446 18.2364C26.9984 18.359 26.3322 19.2158 26.4564 20.15C26.5806 21.0842 27.4483 21.7421 28.3945 21.6194Z" fill="#F45604"/>
<path d="M40.6635 43.2132C41.4441 43.2132 42.077 42.5884 42.077 41.8176C42.077 41.0467 41.4441 40.4219 40.6635 40.4219C39.8828 40.4219 39.25 41.0467 39.25 41.8176C39.25 42.5884 39.8828 43.2132 40.6635 43.2132Z" fill="#DB1B4A"/>
<path d="M36.1112 42.3696C36.6558 42.3696 37.0973 41.9336 37.0973 41.3959C37.0973 40.8581 36.6558 40.4221 36.1112 40.4221C35.5665 40.4221 35.125 40.8581 35.125 41.3959C35.125 41.9336 35.5665 42.3696 36.1112 42.3696Z" fill="#DB1B4A"/>
<path d="M37.2885 38.3252C37.7405 38.2198 38.0204 37.7726 37.9138 37.3263C37.8071 36.88 37.3542 36.6036 36.9022 36.7089C36.4502 36.8143 36.1702 37.2615 36.2769 37.7078C36.3836 38.1541 36.8365 38.4305 37.2885 38.3252Z" fill="#DB1B4A"/>
<path d="M19.0515 18.305C19.1207 18.1423 19.1878 17.978 19.2502 17.8127C20.4761 14.5874 22.8906 11.9316 25.9848 10.3409C26.2912 10.1833 26.5991 10.0269 26.9087 9.87146C26.8389 9.92778 22.3835 13.5745 20.315 17.8106C26.8759 19.8107 29.732 12.462 31.0313 8.2489C31.7803 5.81845 33.3745 5.0575 33.3745 5.0575C33.3407 5.05332 32.9931 5.02881 32.4237 5.02881C28.9259 5.02881 17.0966 5.96031 19.0515 18.305Z" fill="#3AAA35"/>
<path d="M24.984 43.2287C27.7974 44.9875 31.0599 45.9187 34.3898 45.9132C36.3547 44.3485 32.5532 42.2686 26.0916 38.4847C17.3328 33.3546 18.0723 21.918 18.0723 21.918C14.8809 29.5927 17.6329 38.6505 24.984 43.2287Z" fill="#DB1B4A"/>
<path style="mix-blend-mode:overlay" d="M0.00366211 0.000976562C0.248223 0.105288 13.1144 5.64734 14.952 16.3997C15.5684 20.0063 15.682 22.3846 15.6593 24.1078C15.7174 23.8616 15.7813 23.6176 15.851 23.3729C23.612 6.84431 0.315834 0.0901626 0.00366211 0.000976562Z" fill="url(#paint0_linear_1_221)"/>
<path style="mix-blend-mode:overlay" d="M19.0515 18.305C19.4514 6.54028 33.1489 5.08097 33.3713 5.0575C33.3375 5.05332 32.99 5.02881 32.4205 5.02881C28.9259 5.02881 17.0966 5.96031 19.0515 18.305Z" fill="url(#paint1_linear_1_221)"/>
<path d="M38.4922 26.9848C38.7035 27.1305 38.9214 27.2696 39.1461 27.402C39.5603 27.6484 39.9881 27.8716 40.4275 28.0707C41.5222 28.5683 42.6825 28.9108 43.8741 29.0882C49.3606 29.9013 54.9597 27.0943 57.3894 21.8636C59.3597 17.627 60.0928 11.3866 56.22 9.31396C55.1572 8.74494 54.0142 8.82318 52.8563 9.40941C56.6299 8.66149 56.5654 12.0224 56.1312 14.8059C55.3981 19.5589 50.2332 32.3537 38.4922 26.9848Z" fill="#DB1B4A"/>
<path d="M70.5498 35.125C70.2331 35.125 69.9665 35.0167 69.7498 34.8C69.5331 34.5833 69.4248 34.3167 69.4248 34V18.7C69.4248 18.3833 69.5331 18.1167 69.7498 17.9C69.9665 17.6667 70.2331 17.55 70.5498 17.55H80.2748C80.5748 17.55 80.8248 17.6583 81.0248 17.875C81.2415 18.075 81.3498 18.325 81.3498 18.625C81.3498 18.925 81.2415 19.175 81.0248 19.375C80.8248 19.575 80.5748 19.675 80.2748 19.675H71.6998V25.2H79.3998C79.6998 25.2 79.9498 25.3083 80.1498 25.525C80.3665 25.725 80.4748 25.975 80.4748 26.275C80.4748 26.575 80.3665 26.825 80.1498 27.025C79.9498 27.225 79.6998 27.325 79.3998 27.325H71.6998V34C71.6998 34.3167 71.5831 34.5833 71.3498 34.8C71.1331 35.0167 70.8665 35.125 70.5498 35.125Z" fill="#DB1B4A"/>
<path d="M84.6262 35.125C84.3095 35.125 84.0428 35.0167 83.8262 34.8C83.6095 34.5833 83.5012 34.3167 83.5012 34V23.275C83.5012 22.9583 83.6095 22.6917 83.8262 22.475C84.0428 22.2417 84.3095 22.125 84.6262 22.125C84.9428 22.125 85.2095 22.2417 85.4262 22.475C85.6595 22.6917 85.7762 22.9583 85.7762 23.275V24.35C86.9428 22.7833 88.2512 22 89.7012 22H89.8262C90.1428 22 90.4012 22.1083 90.6012 22.325C90.8178 22.5417 90.9262 22.8083 90.9262 23.125C90.9262 23.4417 90.8178 23.7 90.6012 23.9C90.3845 24.1 90.1095 24.2 89.7762 24.2H89.6512C88.8512 24.2 88.1178 24.4 87.4512 24.8C86.7845 25.1833 86.2262 25.7167 85.7762 26.4V34C85.7762 34.3167 85.6595 34.5833 85.4262 34.8C85.2095 35.0167 84.9428 35.125 84.6262 35.125Z" fill="#DB1B4A"/>
<path d="M97.4215 35.25C96.5048 35.25 95.7048 35.0333 95.0215 34.6C94.3548 34.1667 93.8382 33.575 93.4715 32.825C93.1215 32.075 92.9465 31.25 92.9465 30.35V23.25C92.9465 22.9333 93.0548 22.6667 93.2715 22.45C93.5048 22.2333 93.7798 22.125 94.0965 22.125C94.4132 22.125 94.6798 22.2333 94.8965 22.45C95.1132 22.6667 95.2215 22.9333 95.2215 23.25V30.1C95.2215 32.1333 96.1382 33.15 97.9715 33.15C98.8048 33.15 99.5465 32.9333 100.196 32.5C100.863 32.0667 101.488 31.4833 102.071 30.75V23.25C102.071 22.9333 102.18 22.6667 102.396 22.45C102.63 22.2333 102.905 22.125 103.221 22.125C103.538 22.125 103.805 22.2333 104.021 22.45C104.238 22.6667 104.346 22.9333 104.346 23.25V33.975C104.346 34.2917 104.238 34.5667 104.021 34.8C103.805 35.0167 103.538 35.125 103.221 35.125C102.905 35.125 102.63 35.0167 102.396 34.8C102.18 34.5667 102.071 34.2917 102.071 33.975V32.95C101.438 33.65 100.755 34.2083 100.021 34.625C99.2882 35.0417 98.4215 35.25 97.4215 35.25Z" fill="#DB1B4A"/>
<path d="M109.381 19.65C109.031 19.65 108.731 19.525 108.481 19.275C108.231 19.025 108.106 18.725 108.106 18.375V18.275C108.106 17.925 108.231 17.625 108.481 17.375C108.731 17.125 109.031 17 109.381 17H109.531C109.881 17 110.181 17.125 110.431 17.375C110.681 17.625 110.806 17.925 110.806 18.275V18.375C110.806 18.725 110.681 19.025 110.431 19.275C110.181 19.525 109.881 19.65 109.531 19.65H109.381ZM109.431 35.125C109.114 35.125 108.848 35.0167 108.631 34.8C108.414 34.5833 108.306 34.3167 108.306 34V23.275C108.306 22.9583 108.414 22.6917 108.631 22.475C108.848 22.2417 109.114 22.125 109.431 22.125C109.764 22.125 110.039 22.2333 110.256 22.45C110.473 22.6667 110.581 22.9417 110.581 23.275V34C110.581 34.3167 110.464 34.5833 110.231 34.8C110.014 35.0167 109.748 35.125 109.431 35.125Z" fill="#DB1B4A"/>
<path d="M118.931 35.25C116.498 35.25 115.281 34.15 115.281 31.95V24.2H113.506C113.373 24.2 113.256 24.1583 113.156 24.075C113.073 23.975 113.031 23.8583 113.031 23.725C113.031 23.5583 113.106 23.4167 113.256 23.3L116.656 19.975C116.806 19.825 116.948 19.75 117.081 19.75C117.215 19.75 117.323 19.8 117.406 19.9C117.506 20 117.556 20.1167 117.556 20.25V22.25H120.381C120.665 22.25 120.898 22.3417 121.081 22.525C121.265 22.7083 121.356 22.9417 121.356 23.225C121.356 23.4917 121.265 23.725 121.081 23.925C120.898 24.1083 120.665 24.2 120.381 24.2H117.556V31.75C117.556 32.4 117.706 32.8167 118.006 33C118.323 33.1667 118.715 33.25 119.181 33.25C119.515 33.25 119.848 33.2 120.181 33.1C120.248 33.0833 120.315 33.0667 120.381 33.05C120.465 33.0333 120.565 33.025 120.681 33.025C120.915 33.025 121.123 33.1167 121.306 33.3C121.49 33.4667 121.581 33.675 121.581 33.925C121.581 34.3083 121.39 34.6 121.006 34.8C120.356 35.1 119.665 35.25 118.931 35.25Z" fill="#DB1B4A"/>
<path d="M125.652 35C125.336 35 125.069 34.8917 124.852 34.675C124.636 34.4583 124.527 34.1917 124.527 33.875V18.7C124.527 18.3833 124.636 18.1167 124.852 17.9C125.069 17.6667 125.336 17.55 125.652 17.55H131.552C133.336 17.55 134.711 17.9583 135.677 18.775C136.661 19.5917 137.152 20.6917 137.152 22.075C137.152 23.0417 136.919 23.85 136.452 24.5C136.002 25.1333 135.419 25.6083 134.702 25.925C135.702 26.2417 136.519 26.75 137.152 27.45C137.802 28.15 138.127 29.0333 138.127 30.1C138.127 31.6333 137.611 32.8333 136.577 33.7C135.544 34.5667 133.919 35 131.702 35H125.652ZM130.952 25.1C132.436 25.1 133.477 24.85 134.077 24.35C134.677 23.85 134.977 23.15 134.977 22.25C134.977 21.4667 134.652 20.8417 134.002 20.375C133.369 19.9083 132.494 19.675 131.377 19.675H126.802V25.1H130.952ZM131.477 32.875C133.094 32.875 134.236 32.625 134.902 32.125C135.586 31.625 135.927 30.9167 135.927 30C135.927 28.1 134.452 27.15 131.502 27.15H126.802V32.875H131.477Z" fill="#DB1B4A"/>
<path d="M146.914 35.25C145.631 35.25 144.506 34.975 143.539 34.425C142.573 33.875 141.823 33.1 141.289 32.1C140.773 31.0833 140.514 29.925 140.514 28.625C140.514 27.325 140.773 26.175 141.289 25.175C141.823 24.1583 142.573 23.375 143.539 22.825C144.506 22.275 145.631 22 146.914 22C148.181 22 149.298 22.275 150.264 22.825C151.231 23.375 151.981 24.1583 152.514 25.175C153.048 26.175 153.314 27.325 153.314 28.625C153.314 29.925 153.048 31.0833 152.514 32.1C151.981 33.1 151.231 33.875 150.264 34.425C149.298 34.975 148.181 35.25 146.914 35.25ZM146.914 33.175C147.598 33.175 148.248 33.0167 148.864 32.7C149.498 32.3833 150.014 31.8833 150.414 31.2C150.831 30.5167 151.039 29.65 151.039 28.6C151.039 27.5667 150.831 26.7083 150.414 26.025C150.014 25.3417 149.498 24.85 148.864 24.55C148.248 24.2333 147.598 24.075 146.914 24.075C146.214 24.075 145.548 24.2333 144.914 24.55C144.298 24.85 143.789 25.3417 143.389 26.025C142.989 26.7083 142.789 27.5667 142.789 28.6C142.789 29.65 142.989 30.5167 143.389 31.2C143.789 31.8833 144.298 32.3833 144.914 32.7C145.548 33.0167 146.214 33.175 146.914 33.175Z" fill="#DB1B4A"/>
<path d="M162.124 35.25C160.841 35.25 159.716 34.975 158.749 34.425C157.783 33.875 157.033 33.1 156.499 32.1C155.983 31.0833 155.724 29.925 155.724 28.625C155.724 27.325 155.983 26.175 156.499 25.175C157.033 24.1583 157.783 23.375 158.749 22.825C159.716 22.275 160.841 22 162.124 22C163.391 22 164.508 22.275 165.474 22.825C166.441 23.375 167.191 24.1583 167.724 25.175C168.258 26.175 168.524 27.325 168.524 28.625C168.524 29.925 168.258 31.0833 167.724 32.1C167.191 33.1 166.441 33.875 165.474 34.425C164.508 34.975 163.391 35.25 162.124 35.25ZM162.124 33.175C162.808 33.175 163.458 33.0167 164.074 32.7C164.708 32.3833 165.224 31.8833 165.624 31.2C166.041 30.5167 166.249 29.65 166.249 28.6C166.249 27.5667 166.041 26.7083 165.624 26.025C165.224 25.3417 164.708 24.85 164.074 24.55C163.458 24.2333 162.808 24.075 162.124 24.075C161.424 24.075 160.758 24.2333 160.124 24.55C159.508 24.85 158.999 25.3417 158.599 26.025C158.199 26.7083 157.999 27.5667 157.999 28.6C157.999 29.65 158.199 30.5167 158.599 31.2C158.999 31.8833 159.508 32.3833 160.124 32.7C160.758 33.0167 161.424 33.175 162.124 33.175Z" fill="#DB1B4A"/>
<path d="M172.834 35.125C172.518 35.125 172.251 35.0167 172.034 34.8C171.818 34.5833 171.709 34.3167 171.709 34V23.275C171.709 22.9583 171.818 22.6917 172.034 22.475C172.251 22.2417 172.518 22.125 172.834 22.125C173.151 22.125 173.418 22.2417 173.634 22.475C173.868 22.6917 173.984 22.9583 173.984 23.275V24.3C174.451 23.6333 175.009 23.0833 175.659 22.65C176.326 22.2167 177.184 22 178.234 22C179.168 22 179.968 22.25 180.634 22.75C181.301 23.25 181.776 23.8583 182.059 24.575C183.093 22.8583 184.626 22 186.659 22C187.593 22 188.368 22.2333 188.984 22.7C189.618 23.1667 190.084 23.7667 190.384 24.5C190.684 25.2333 190.834 26 190.834 26.8V34C190.834 34.3167 190.718 34.5833 190.484 34.8C190.268 35.0167 190.001 35.125 189.684 35.125C189.368 35.125 189.101 35.0167 188.884 34.8C188.668 34.5833 188.559 34.3167 188.559 34V27.25C188.559 26.1667 188.368 25.375 187.984 24.875C187.601 24.3583 186.943 24.1 186.009 24.1C185.159 24.1 184.451 24.325 183.884 24.775C183.334 25.2083 182.843 25.7833 182.409 26.5V34C182.409 34.3167 182.293 34.5833 182.059 34.8C181.843 35.0167 181.576 35.125 181.259 35.125C180.943 35.125 180.676 35.0167 180.459 34.8C180.243 34.5833 180.134 34.3167 180.134 34V27.25C180.134 26.1667 179.943 25.375 179.559 24.875C179.176 24.3583 178.518 24.1 177.584 24.1C176.734 24.1 176.026 24.325 175.459 24.775C174.909 25.2083 174.418 25.7833 173.984 26.5V34C173.984 34.3167 173.868 34.5833 173.634 34.8C173.418 35.0167 173.151 35.125 172.834 35.125Z" fill="#DB1B4A"/>
</g>
<defs>
<linearGradient id="paint0_linear_1_221" x1="17.4325" y1="12.0541" x2="0.00366211" y2="12.0541" gradientUnits="userSpaceOnUse">
<stop stop-color="white"/>
<stop offset="0.87" stop-color="#DADADA"/>
</linearGradient>
<linearGradient id="paint1_linear_1_221" x1="33.3713" y1="11.6672" x2="18.835" y2="11.6672" gradientUnits="userSpaceOnUse">
<stop stop-color="white"/>
<stop offset="0.87" stop-color="#DADADA"/>
</linearGradient>
<clipPath id="clip0_1_221">
<rect width="191" height="50" fill="white"/>
</clipPath>
</defs>
</svg>
